<svg width="48" height="48" viewBox="0 0 48 48" fill="none" xmlns="http://www.w3.org/2000/svg">
<g clip-path="url(#clip0_63060_41191)">
<path d="M20.2207 4.45801V7.89316H16.7134C16.7134 7.89316 13.1699 8.44699 13.1699 12.0085V27.1882H17.0759V43.542H22.9698V26.956C22.9698 26.956 23.0766 26.2901 23.9993 26.2901C24.922 26.2901 24.9896 27.0386 24.9896 27.0386V43.5421H30.7134V26.9678H34.708V11.5334C34.708 11.5334 33.992 7.90301 30.9956 7.90301H27.778V4.45801H20.2207Z" fill="#D3E6F8"/>
<path d="M17.2859 27.1882V13.4161C16.4052 13.4161 15.6914 14.1301 15.6914 15.0107V27.1882H17.2859ZM33.2348 8.79137V26.9678H34.7087V11.5334C34.7087 11.5334 34.3795 9.86613 33.2348 8.79137ZM27.7786 7.89316C26.8261 7.89316 26.0538 7.12098 26.0538 6.1684V4.45801H27.7786V7.89316ZM24 21.2525V4.45801H22.4054V19.6579C22.4054 20.5385 23.1193 21.2525 24 21.2525ZM29.1195 43.542H30.714V13.4161C29.8333 13.4161 29.1195 14.1301 29.1195 15.0107V43.542ZM21.3636 43.542H22.995V26.3604C22.0941 26.3604 21.3636 27.0907 21.3636 27.9917V43.542Z" fill="#A4CFF2"/>
<path d="M34.8291 27.6462H30.7138C30.5933 27.6446 30.4784 27.5956 30.3938 27.5099C30.3092 27.4242 30.2617 27.3086 30.2617 27.1882C30.2617 27.0677 30.3092 26.9521 30.3938 26.8664C30.4784 26.7807 30.5933 26.7317 30.7138 26.7301H34.3711V12.0085C34.3711 9.99187 32.7304 8.35124 30.7138 8.35124C30.5938 8.34902 30.4795 8.2998 30.3954 8.21415C30.3113 8.12851 30.2642 8.01329 30.2642 7.89327C30.2642 7.77326 30.3113 7.65803 30.3954 7.57239C30.4795 7.48674 30.5938 7.43752 30.7138 7.4353C33.2356 7.4353 35.2871 9.48687 35.2871 12.0086V27.1883C35.2871 27.3097 35.2388 27.4262 35.1529 27.5121C35.067 27.5979 34.9506 27.6462 34.8291 27.6462Z" fill="#4C4372"/>
<path d="M25.5215 13.4161H29.2351V15.0667H25.5215V13.4161Z" fill="#FD919E"/>
<path d="M27.7793 13.4161H29.2369V15.0667H27.7793V13.4161Z" fill="#E8677D"/>
<path d="M30.7142 8.35109H27.7788C27.6574 8.35107 27.5409 8.30282 27.455 8.21694C27.3691 8.13105 27.3209 8.01458 27.3209 7.89313V4.91602H20.6796V7.89313C20.6796 8.01458 20.6313 8.13105 20.5455 8.21694C20.4596 8.30282 20.3431 8.35107 20.2216 8.35109H17.2861C17.1661 8.34888 17.0518 8.29965 16.9677 8.21401C16.8836 8.12836 16.8365 8.01314 16.8365 7.89313C16.8365 7.77311 16.8836 7.65789 16.9677 7.57224C17.0518 7.4866 17.1661 7.43737 17.2861 7.43516H19.7635V4.45797C19.7635 4.3365 19.8118 4.22001 19.8977 4.13413C19.9836 4.04825 20.1001 4 20.2216 4H27.7787C27.9002 4.00002 28.0167 4.04828 28.1026 4.13416C28.1884 4.22004 28.2367 4.33651 28.2367 4.45797V7.43516H30.7141C30.8341 7.43736 30.9485 7.48658 31.0326 7.57221C31.1166 7.65785 31.1638 7.77307 31.1638 7.89309C31.1638 8.0131 31.1167 8.12833 31.0326 8.21398C30.9485 8.29963 30.8342 8.34887 30.7142 8.35109ZM30.7142 44H25.0297C24.9082 44 24.7917 43.9517 24.7058 43.8658C24.6199 43.7799 24.5716 43.6634 24.5716 43.542V27.3196C24.5716 27.0045 24.3153 26.7481 24.0002 26.7481C23.685 26.7481 23.4288 27.0045 23.4288 27.3196V43.542C23.4287 43.6635 23.3805 43.78 23.2946 43.8659C23.2087 43.9518 23.0922 44.0001 22.9707 44.0001H17.2861C17.1646 44.0001 17.0481 43.9518 16.9623 43.8659C16.8764 43.78 16.8281 43.6635 16.8281 43.542V13.4161C16.8297 13.2957 16.8786 13.1807 16.9644 13.0961C17.0501 13.0115 17.1657 12.964 17.2861 12.964C17.4066 12.964 17.5222 13.0115 17.6079 13.0961C17.6936 13.1807 17.7426 13.2957 17.7441 13.4161V43.084H22.5127V27.3196C22.5127 26.4994 23.1799 25.8321 24.0002 25.8321C24.8204 25.8321 25.4877 26.4995 25.4877 27.3196V43.084H30.2562V13.4161C30.2577 13.2957 30.3067 13.1807 30.3924 13.0961C30.4781 13.0115 30.5937 12.964 30.7142 12.964C30.8346 12.964 30.9502 13.0115 31.0359 13.0961C31.1217 13.1807 31.1706 13.2957 31.1722 13.4161V43.542C31.1722 43.6021 31.1604 43.6617 31.1374 43.7172C31.1143 43.7728 31.0806 43.8233 31.0381 43.8658C30.9956 43.9084 30.9451 43.9421 30.8895 43.9651C30.8339 43.9882 30.7744 44 30.7142 44Z" fill="#4C4372"/>
<path d="M17.2862 27.646H13.1709C13.0495 27.646 12.933 27.5977 12.8471 27.5118C12.7612 27.4259 12.7129 27.3094 12.7129 27.188V12.0083C12.7129 9.48656 14.7645 7.435 17.2862 7.435C17.3471 7.43387 17.4076 7.44489 17.4641 7.4674C17.5207 7.48991 17.5722 7.52346 17.6156 7.5661C17.659 7.60874 17.6935 7.6596 17.7171 7.71573C17.7406 7.77185 17.7528 7.8321 17.7528 7.89297C17.7528 7.95383 17.7406 8.01408 17.7171 8.07021C17.6935 8.12633 17.659 8.17719 17.6156 8.21983C17.5722 8.26247 17.5207 8.29602 17.4641 8.31853C17.4076 8.34104 17.3471 8.35206 17.2862 8.35094C15.2696 8.35094 13.629 9.99164 13.629 12.0082V26.7299H17.2862C17.4077 26.7299 17.5242 26.7782 17.6101 26.8641C17.696 26.95 17.7443 27.0665 17.7443 27.188C17.7443 27.3094 17.696 27.426 17.6101 27.5119C17.5242 27.5978 17.4077 27.646 17.2862 27.646ZM24.0002 21.8934C23.8788 21.8934 23.7623 21.8452 23.6764 21.7593C23.5905 21.6734 23.5423 21.5569 23.5423 21.4355V4.45789C23.5445 4.33789 23.5937 4.22356 23.6794 4.13948C23.765 4.05541 23.8802 4.0083 24.0002 4.0083C24.1203 4.0083 24.2355 4.05541 24.3211 4.13948C24.4068 4.22356 24.456 4.33789 24.4582 4.45789V21.4355C24.4582 21.5569 24.4099 21.6734 24.324 21.7593C24.2382 21.8452 24.1217 21.8934 24.0002 21.8934ZM29.2365 15.5246H25.5229C25.4014 15.5246 25.285 15.4763 25.1991 15.3904C25.1132 15.3046 25.0649 15.1881 25.0649 15.0666V13.4161C25.0649 13.2946 25.1132 13.1782 25.1991 13.0923C25.285 13.0064 25.4014 12.9581 25.5229 12.9581H29.2365C29.358 12.9581 29.4744 13.0064 29.5603 13.0923C29.6462 13.1781 29.6945 13.2946 29.6945 13.4161V15.0666C29.6945 15.1268 29.6827 15.1863 29.6597 15.2419C29.6366 15.2975 29.6029 15.348 29.5604 15.3905C29.5178 15.433 29.4673 15.4668 29.4118 15.4898C29.3562 15.5128 29.2966 15.5246 29.2365 15.5246ZM25.9809 14.6085H28.7786V13.8741H25.9809V14.6085Z" fill="#4C4372"/>
</g>
<defs>
<clipPath id="clip0_63060_41191">
<rect width="40" height="40" fill="white" transform="translate(4 4)"/>
</clipPath>
</defs>
</svg>
