<svg width="48" height="48" viewBox="0 0 48 48" fill="none" xmlns="http://www.w3.org/2000/svg">
<path d="M42.3918 24.3092C41.7157 22.9884 40.0948 22.4662 38.7757 23.1441L35.7245 24.7066C35.2511 24.9502 34.6899 24.6053 34.6899 24.0734V9.66919C34.6899 8.26438 33.552 7.12651 32.1472 7.12651C30.7432 7.12651 29.6045 8.26398 29.6045 9.66919V7.04476C29.6045 5.63995 28.4666 4.50208 27.0638 4.50208C25.6576 4.50208 24.5211 5.64015 24.5211 7.04476V9.39261C24.5211 7.62605 22.7634 6.42149 21.1485 6.99213C21.1407 6.58298 21.0354 6.19713 20.8563 5.85808C20.4314 5.05143 19.584 4.50208 18.6098 4.50208C17.203 4.50208 16.0672 5.63995 16.0672 7.04476V9.39261C16.0672 9.0399 15.9951 8.70285 15.8645 8.39695C15.4768 7.48906 14.5766 6.85193 13.5245 6.85193C12.1158 6.85193 10.9818 7.99362 10.9818 9.39261V11.9624C10.9818 10.5576 9.84392 9.41972 8.44112 9.41972C7.04615 9.41972 5.89844 10.5459 5.89844 11.9624V38.3622H14.3524H34.6895V32.845C34.6895 31.8825 35.2272 31.0019 36.0844 30.5616L41.2262 27.9255C42.5477 27.2494 43.0699 25.6303 42.3918 24.3092Z" fill="#F0C020"/>
<path d="M11.8092 37.3057H11.4075C11.1301 37.3057 10.9053 37.0809 10.9053 36.8035C10.9053 36.5261 11.1301 36.3014 11.4075 36.3014H11.8092C12.0866 36.3014 12.3113 36.5261 12.3113 36.8035C12.3113 37.0809 12.0866 37.3057 11.8092 37.3057ZM9.39888 37.3057H7.45918C7.18179 37.3057 6.95703 37.0809 6.95703 36.8035V11.9626C6.95703 11.1431 7.62368 10.4764 8.44299 10.4764C8.72038 10.4764 8.94514 10.7012 8.94514 10.9786C8.94514 11.256 8.72038 11.4807 8.44299 11.4807C8.17745 11.4807 7.96133 11.6969 7.96133 11.9626V36.3014H9.39888C9.67627 36.3014 9.90103 36.5261 9.90103 36.8035C9.90103 37.0809 9.67627 37.3057 9.39888 37.3057Z" fill="#F9E5AF"/>
<path d="M21.1497 6.99161C20.1534 7.33508 19.4364 8.28113 19.4364 9.39189V11.9629C19.4364 10.2094 17.707 8.99017 16.0679 9.5586C15.0616 9.90207 14.3526 10.8562 14.3526 11.9629V38.3621H13.1836V11.9629C13.1836 10.2255 14.3888 8.79132 15.8651 8.39763C15.9956 8.70294 16.0679 9.04038 16.0679 9.39189V8.3434C16.791 8.17267 17.6125 8.2269 18.3658 8.55028C18.641 7.35919 19.4986 6.3107 20.8564 5.85876C21.0352 6.19621 21.1419 6.58387 21.1497 6.99161Z" fill="#CF941C"/>
<path d="M33.1279 37.3057H31.7219C31.4445 37.3057 31.2197 37.081 31.2197 36.8036C31.2197 36.5262 31.4445 36.3014 31.7219 36.3014H33.1279C33.4053 36.3014 33.63 36.5262 33.63 36.8036C33.63 37.081 33.4053 37.3057 33.1279 37.3057ZM29.7133 37.3057H15.9084C15.631 37.3057 15.4062 37.081 15.4062 36.8036V11.9626C15.4062 11.3273 15.8082 10.7625 16.4063 10.5578C16.6693 10.468 16.9543 10.6078 17.0441 10.8704C17.1338 11.1327 16.994 11.4183 16.7317 11.5081C16.5395 11.5738 16.4105 11.7566 16.4105 11.9628V36.3016H29.7133C29.9907 36.3016 30.2154 36.5264 30.2154 36.8038C30.2154 37.0812 29.9907 37.3057 29.7133 37.3057Z" fill="#F9E5AF"/>
<path d="M35.643 38.9467V42.9137C35.643 43.237 35.3819 43.4982 35.0585 43.4982H13.9849C13.6615 43.4982 13.4004 43.237 13.4004 42.9137V38.9467C13.4004 38.6253 13.6615 38.3622 13.9849 38.3622H35.0585C35.3819 38.3622 35.643 38.6253 35.643 38.9467Z" fill="#72C2E9"/>
<path d="M13.9845 43.4982H5.08645C4.76367 43.4982 4.50195 43.2364 4.50195 42.9137V38.9467C4.50195 38.6239 4.76367 38.3622 5.08645 38.3622H13.9845C13.6612 38.3622 13.4 38.6253 13.4 38.9467V42.9137C13.4 43.237 13.6612 43.4982 13.9845 43.4982Z" fill="#72C2E9"/>
<path d="M29.6057 16.7834C29.3285 16.7834 29.1035 17.0082 29.1035 17.2856V19.9207C29.1035 20.1959 29.3285 20.4228 29.6057 20.4228C29.8829 20.4228 30.1078 20.1959 30.1078 19.9207V17.2856C30.1078 17.0082 29.8829 16.7834 29.6057 16.7834Z" fill="black"/>
<path d="M29.6057 15.7791C29.883 15.7791 30.1078 15.5543 30.1078 15.2769C30.1078 14.9996 29.883 14.7748 29.6057 14.7748C29.3283 14.7748 29.1035 14.9996 29.1035 15.2769C29.1035 15.5543 29.3283 15.7791 29.6057 15.7791Z" fill="black"/>
<path d="M5.39597 37.8599H5.08665C4.48749 37.8599 4 38.3474 4 38.9466V42.9133C4 43.5125 4.48749 44 5.08665 44L24.8796 43.9998C25.1568 43.9998 25.3817 43.7748 25.3817 43.4977C25.3817 43.2203 25.1568 42.9955 24.8796 42.9955H13.9847C13.9385 42.9955 13.9024 42.9591 13.9024 42.9131V38.9466C13.9024 38.9048 13.9365 38.8638 13.9888 38.8638H35.0589C35.1031 38.8638 35.1413 38.9018 35.1413 38.9462V42.9131C35.1393 42.9591 35.1051 42.9955 35.0589 42.9955H28.8966C28.6194 42.9955 28.3944 43.2203 28.3944 43.4977C28.3944 43.7748 28.6194 43.9998 28.8966 43.9998H35.0589C35.6555 43.9998 36.1436 43.5115 36.1456 42.9131V38.9462C36.1438 38.3932 35.7272 37.9415 35.1921 37.8734V32.8449C35.1921 32.0673 35.6221 31.3635 36.3141 31.008L41.4555 28.3721C43.0246 27.5689 43.6439 25.6487 42.8388 24.0801C42.0352 22.51 40.1122 21.8922 38.5467 22.6966L35.4948 24.2597C35.3562 24.3314 35.1921 24.2308 35.1921 24.0729V9.66906C35.1921 7.99028 33.8263 6.62443 32.1473 6.62443C31.3631 6.62443 30.647 6.92231 30.1067 7.4112V7.04483C30.1067 5.36605 28.7417 4 27.0639 4C25.4723 4 24.0191 5.24674 24.0191 7.13502C23.3285 6.51697 22.4325 6.26409 21.574 6.37999C21.2549 4.95228 20.0117 4.0006 18.6103 4.0006C17.0187 4.0006 15.5653 5.2393 15.5653 7.13421C15.0049 6.62785 14.2818 6.35086 13.5246 6.34885C11.8454 6.35086 10.4795 7.7147 10.4795 9.39168V9.701C9.91913 9.19483 9.19604 8.91785 8.44081 8.91785C6.77448 8.92187 5.39999 10.26 5.39577 11.9629V16.2673C5.39577 16.5445 5.62275 16.7695 5.89993 16.7695C6.17511 16.7695 6.40007 16.5445 6.40007 16.2673V11.9629C6.40409 10.8379 7.318 9.92215 8.44081 9.92215C9.56361 9.92416 10.4775 10.8399 10.4795 11.9629C10.4795 11.9661 10.4805 11.9693 10.4805 11.9725V19.9201C10.4805 20.1975 10.7053 20.4223 10.9827 20.4223C11.2601 20.4223 11.4848 20.1975 11.4848 19.9201L11.4838 9.39168C11.4858 8.27088 12.4018 7.35496 13.5266 7.35315C14.3441 7.35315 15.0812 7.84124 15.4026 8.59446C15.4896 8.79733 15.54 9.01085 15.5573 9.22918C14.5236 9.73334 13.8508 10.7881 13.8508 11.9625V37.8603H6.40027V20.2847C6.40027 20.0075 6.17531 19.7825 5.90013 19.7825C5.62295 19.7825 5.39597 20.0075 5.39597 20.2847V37.8599ZM16.5698 7.04383C16.5698 5.91881 17.4857 5.0051 18.6105 5.0051C19.5745 5.0051 20.4303 5.6816 20.6117 6.67666C19.5947 7.18684 18.9341 8.23191 18.9341 9.39268V9.702C18.8477 9.62467 18.7564 9.55156 18.6601 9.48307C18.0375 9.03937 17.3017 8.85257 16.5698 8.93472V7.04383ZM14.8553 11.9623C14.8553 11.0897 15.4078 10.3146 16.232 10.0326C17.5506 9.57727 18.9343 10.5565 18.9343 11.9623C18.9343 11.9647 18.9349 11.9667 18.9349 11.9691V19.9201C18.9349 20.1975 19.1597 20.4223 19.4371 20.4223C19.7145 20.4223 19.9392 20.1975 19.9392 19.9201L19.9386 9.39248C19.9386 8.52336 20.4908 7.74925 21.3163 7.46543C22.6054 7.00888 24.0159 7.96899 24.0193 9.38746V19.9201C24.0193 20.1975 24.244 20.4223 24.5214 20.4223C24.7988 20.4223 25.0236 20.1975 25.0236 19.9201L25.0238 7.04463C25.0238 5.91941 25.9391 5.0041 27.0643 5.0041C28.1883 5.0041 29.1028 5.91962 29.1028 7.04463L29.1036 13.2683C29.1036 13.5455 29.3286 13.7704 29.6058 13.7704C29.883 13.7704 30.1079 13.5455 30.1079 13.2683V9.6536C30.1164 8.53561 31.0277 7.62873 32.1477 7.62873C33.2729 7.62873 34.1882 8.54405 34.1882 9.66906V24.0733C34.1882 24.9818 35.1473 25.5677 35.9538 25.1537L39.0056 23.5906C40.0758 23.0407 41.3936 23.4603 41.9456 24.5385C42.497 25.6127 42.074 26.9281 40.9984 27.4785L40.9982 27.4787L35.8561 30.115C34.8273 30.6434 34.1884 31.6895 34.1884 32.8453V37.8599H14.8557V11.9623H14.8553ZM12.9013 38.8642C12.8973 38.916 12.8939 42.8983 12.9013 42.9957H5.08665C5.04126 42.9957 5.0043 42.9587 5.0043 42.9133V38.9466C5.0043 38.901 5.04126 38.8642 5.08665 38.8642H12.9013Z" fill="black"/>
<path d="M5.90064 18.778C6.17582 18.778 6.40078 18.553 6.40078 18.2758C6.40078 17.9986 6.17582 17.7737 5.90064 17.7737C5.62346 17.7737 5.39648 17.9986 5.39648 18.2758C5.39648 18.553 5.62346 18.778 5.90064 18.778Z" fill="black"/>
<path d="M26.8869 44C27.1642 44 27.3891 43.7752 27.3891 43.4979C27.3891 43.2205 27.1642 42.9957 26.8869 42.9957C26.6096 42.9957 26.3848 43.2205 26.3848 43.4979C26.3848 43.7752 26.6096 44 26.8869 44Z" fill="black"/>
</svg>
