<svg width="48" height="48" viewBox="0 0 48 48" fill="none" xmlns="http://www.w3.org/2000/svg">
<path d="M11.3262 31.5885H36.6751V36.0744H11.3262V31.5885Z" fill="#FD919E"/>
<path d="M32.4473 31.5885H36.6752V36.0744H32.4473V31.5885Z" fill="#E8677D"/>
<path d="M25.3438 39.0562H36.6761V43.5419H25.3438V39.0562Z" fill="#FD919E"/>
<path d="M32.7637 39.0562H36.675V43.5419H32.7637V39.0562Z" fill="#E8677D"/>
<path d="M11.3262 39.0561H22.6585V43.5419H11.3262V39.0561ZM11.3262 4.45801H15.812V31.5886H11.3262V4.45801Z" fill="#FD919E"/>
<path d="M32.1875 4.45801H36.6734V31.5886H32.1875V4.45801Z" fill="#E8677D"/>
<path d="M15.8125 18.2224H32.1898V22.7083H15.8125V18.2224Z" fill="#FD919E"/>
<path d="M28.5156 18.2224H32.1875V22.7083H28.5156V18.2224Z" fill="#E8677D"/>
<path d="M24.2568 18.2224L15.8125 4.45801V11.77L19.7709 18.2224H24.2568Z" fill="#7BABF1"/>
<path d="M32.1884 4.45801L23.7441 18.2224H28.23L32.1885 11.7699V4.45801H32.1884Z" fill="#7BABF1"/>
<path d="M36.6741 36.5324H11.3252C11.2037 36.5324 11.0872 36.4841 11.0013 36.3983C10.9155 36.3124 10.8672 36.1959 10.8672 36.0744V31.5887C10.8672 31.4672 10.9154 31.3507 11.0013 31.2648C11.0872 31.1789 11.2037 31.1306 11.3252 31.1306H36.6741C36.7955 31.1306 36.912 31.1789 36.9979 31.2648C37.0838 31.3507 37.132 31.4672 37.132 31.5887V36.0744C37.132 36.1959 37.0838 36.3124 36.9979 36.3983C36.912 36.4841 36.7955 36.5324 36.6741 36.5324ZM11.7832 35.6164H36.216V32.0466H11.7832V35.6164ZM36.6741 44H25.3417C25.2202 44 25.1038 43.9517 25.0179 43.8658C24.932 43.7799 24.8837 43.6634 24.8837 43.5419V39.0561C24.8838 38.9346 24.932 38.8182 25.0179 38.7323C25.1038 38.6464 25.2203 38.5981 25.3417 38.5981H36.6741C36.7955 38.5981 36.912 38.6464 36.9979 38.7323C37.0838 38.8182 37.132 38.9346 37.132 39.0561V43.5419C37.132 43.6634 37.0838 43.7799 36.9979 43.8658C36.912 43.9517 36.7955 44 36.6741 44ZM25.7998 43.084H36.216V39.5141H25.7998V43.084ZM22.6575 44H11.3252C11.2037 44 11.0872 43.9517 11.0013 43.8658C10.9154 43.7799 10.8672 43.6634 10.8672 43.5419V39.0561C10.8672 38.9346 10.9155 38.8182 11.0013 38.7323C11.0872 38.6464 11.2037 38.5981 11.3252 38.5981H22.6575C22.779 38.5981 22.8954 38.6464 22.9813 38.7323C23.0672 38.8182 23.1154 38.9346 23.1155 39.0561V43.5419C23.1155 43.6634 23.0672 43.7799 22.9813 43.8658C22.8955 43.9517 22.779 44 22.6575 44ZM11.7832 43.084H22.1995V39.5141H11.7832V43.084Z" fill="#4C4372"/>
<path d="M15.811 32.0466H11.3252C11.2037 32.0465 11.0872 31.9983 11.0013 31.9124C10.9155 31.8265 10.8672 31.7101 10.8672 31.5886V4.45805C10.8672 4.33658 10.9154 4.22008 11.0013 4.13419C11.0872 4.04829 11.2037 4.00002 11.3252 4H15.811C15.9325 4 16.049 4.04826 16.1349 4.13416C16.2208 4.22006 16.2691 4.33657 16.2691 4.45805V31.5886C16.269 31.7101 16.2208 31.8265 16.1349 31.9124C16.049 31.9983 15.9325 32.0466 15.811 32.0466ZM11.7832 31.1305H15.353V4.91609H11.7832V31.1305ZM36.6741 32.0466H32.1882C32.0667 32.0466 31.9502 31.9983 31.8643 31.9124C31.7784 31.8265 31.7302 31.7101 31.7302 31.5886V4.45805C31.7302 4.33657 31.7784 4.22006 31.8643 4.13416C31.9502 4.04826 32.0667 4 32.1882 4H36.6741C36.7955 4.00002 36.912 4.04829 36.9979 4.13419C37.0838 4.22008 37.132 4.33658 37.132 4.45805V31.5886C37.132 31.7101 37.0838 31.8265 36.9979 31.9124C36.912 31.9983 36.7955 32.0465 36.6741 32.0466ZM32.6462 31.1305H36.216V4.91609H32.6462V31.1305Z" fill="#4C4372"/>
<path d="M24.2559 18.6805H19.77C19.6917 18.6805 19.6147 18.6604 19.5463 18.6222C19.478 18.5839 19.4206 18.5288 19.3796 18.462L15.4211 12.0096C15.3769 11.9375 15.3535 11.8546 15.3535 11.7701V4.45811C15.3535 4.35834 15.3861 4.2613 15.4463 4.18174C15.5065 4.10218 15.5911 4.04446 15.6871 4.01735C15.7831 3.99024 15.8854 3.99523 15.9783 4.03155C16.0712 4.06787 16.1498 4.13354 16.202 4.21858L24.6463 17.983C24.689 18.0524 24.7123 18.1319 24.714 18.2133C24.7156 18.2948 24.6955 18.3752 24.6557 18.4463C24.6159 18.5174 24.5579 18.5766 24.4876 18.6177C24.4173 18.6589 24.3373 18.6806 24.2559 18.6805ZM20.0263 17.7645H23.4376L16.2695 6.08053V11.6408L20.0263 17.7645Z" fill="#4C4372"/>
<path d="M28.2309 18.6805H23.745C23.6636 18.6805 23.5836 18.6587 23.5134 18.6175C23.4432 18.5763 23.3852 18.5171 23.3455 18.4461C23.3057 18.375 23.2856 18.2947 23.2872 18.2133C23.2888 18.1319 23.3121 18.0524 23.3546 17.983L31.799 4.21858C31.8512 4.13358 31.9297 4.06794 32.0226 4.03164C32.1155 3.99535 32.2178 3.99037 32.3138 4.01748C32.4098 4.04458 32.4943 4.10228 32.5545 4.18181C32.6147 4.26135 32.6473 4.35836 32.6473 4.45811V11.77C32.6474 11.8545 32.624 11.9374 32.5798 12.0095L28.6212 18.462C28.5803 18.5288 28.5229 18.5839 28.4546 18.6222C28.3862 18.6605 28.3092 18.6805 28.2309 18.6805ZM24.5633 17.7645H27.9745L31.7313 11.6407V6.08053L24.5633 17.7645Z" fill="#4C4372"/>
<path d="M32.1887 23.1664H15.8115C15.69 23.1663 15.5735 23.1181 15.4876 23.0322C15.4018 22.9463 15.3535 22.8298 15.3535 22.7083V18.2225C15.3535 18.101 15.4018 17.9845 15.4876 17.8986C15.5735 17.8127 15.69 17.7644 15.8115 17.7644H32.1887C32.3101 17.7644 32.4266 17.8127 32.5125 17.8986C32.5984 17.9845 32.6466 18.101 32.6466 18.2225V22.7083C32.6466 22.8298 32.5984 22.9463 32.5125 23.0322C32.4266 23.1181 32.3101 23.1663 32.1887 23.1664ZM16.2695 22.2503H31.7306V18.6805H16.2695V22.2503ZM26.0005 36.5325H21.9997C21.1805 36.5325 20.5141 35.866 20.5141 35.0468V32.6162C20.5141 31.7971 21.1805 31.1306 21.9997 31.1306H26.0005C26.8197 31.1306 27.4861 31.797 27.4861 32.6162V35.0468C27.4861 35.866 26.8197 36.5325 26.0005 36.5325ZM21.9997 32.0466C21.6856 32.0466 21.4301 32.3021 21.4301 32.6161V35.0467C21.4301 35.3608 21.6856 35.6164 21.9997 35.6164H26.0005C26.3145 35.6164 26.5701 35.3608 26.5701 35.0467V32.6161C26.5701 32.3021 26.3145 32.0466 26.0005 32.0466H21.9997Z" fill="#4C4372"/>
<path d="M27.0285 34.2895H24.6493C24.5289 34.288 24.4139 34.239 24.3293 34.1533C24.2447 34.0676 24.1973 33.952 24.1973 33.8315C24.1973 33.7111 24.2447 33.5955 24.3293 33.5098C24.4139 33.4241 24.5289 33.3751 24.6493 33.3735H27.0285C27.1489 33.3751 27.2639 33.4241 27.3485 33.5098C27.4331 33.5955 27.4805 33.7111 27.4805 33.8315C27.4805 33.952 27.4331 34.0676 27.3485 34.1533C27.2639 34.239 27.1489 34.288 27.0285 34.2895Z" fill="#4C4372"/>
</svg>
