<svg width="48" height="48" viewBox="0 0 48 48" fill="none" xmlns="http://www.w3.org/2000/svg">
<path d="M37.1456 30.2703L36.0327 29.4576C35.1055 28.779 33.8026 28.9811 33.1226 29.91C32.4411 30.8479 32.6537 32.1446 33.5766 32.8201L34.4691 33.4729C32.0776 35.0184 28.5764 35.4979 24.6756 35.4979C20.6752 35.4979 17.0954 34.9929 14.6995 33.3507L15.4247 32.8199C16.349 32.1443 16.5616 30.8476 15.8786 29.9098C15.1987 28.9809 13.8958 28.7789 12.9685 29.4574L12.1317 30.0696C11.4438 28.1919 11.4161 25.4946 12.2116 23.3069C12.9505 23.7729 13.4857 24.0291 13.5492 24.0593L14.7043 21.6029C14.4207 21.4702 13.9985 21.2396 13.5176 20.9304C15.6515 18.1619 17.7646 18.4467 19.9849 15.1432C21.0313 13.5855 22.7427 12.5692 24.6759 12.5692C26.6105 12.5692 28.3219 13.5855 29.3683 15.1432C31.556 18.3982 33.6006 18.1567 35.7105 20.7736C34.9323 21.2953 34.3263 21.5894 34.2976 21.6029C35.1857 23.4911 34.5911 22.2261 35.4527 24.0593C35.5235 24.0261 36.1915 23.7065 37.0722 23.1258C37.9511 25.3858 37.943 28.2736 37.1456 30.2703Z" fill="#F0C020"/>
<path d="M24.6754 34.2775C21.5706 34.2775 19.1738 33.9625 17.3484 33.315C17.1204 33.234 17.001 32.9834 17.082 32.7556C17.1628 32.5276 17.4131 32.4086 17.6414 32.489C19.3714 33.1029 21.6723 33.4012 24.6754 33.4012C26.133 33.4012 27.4527 33.3279 28.5975 33.1834C28.837 33.1523 29.0566 33.323 29.0871 33.5631C29.1174 33.8032 28.9473 34.0225 28.7073 34.0528C27.5261 34.2019 26.1695 34.2775 24.6754 34.2775ZM29.9516 33.4178C29.8987 33.1816 30.0475 32.9473 30.2836 32.8947C30.6879 32.8043 31.0729 32.7004 31.428 32.5852C31.6584 32.5111 31.9052 32.6371 31.9797 32.8672C32.0542 33.0973 31.9278 33.3446 31.6977 33.4189C31.3167 33.5421 30.9054 33.6534 30.4748 33.7496C30.2368 33.8029 30.004 33.6523 29.9516 33.4178Z" fill="#F9E5AF"/>
<path d="M36.0175 28.0462C35.7761 28.0279 35.5953 27.8178 35.6131 27.5765C35.6582 26.9778 35.645 26.3117 35.566 25.6893C35.5357 25.4492 35.7057 25.23 35.9456 25.1995C36.1861 25.1688 36.4049 25.3392 36.4354 25.5791C36.5231 26.2721 36.5355 26.9955 36.487 27.6418C36.4687 27.8856 36.2558 28.0646 36.0175 28.0462Z" fill="#F9E5AF"/>
<path d="M31.9425 20.2923C30.1446 19.2388 28.6919 17.9 27.6247 16.3126C26.9323 15.2816 25.8287 14.6661 24.6728 14.6661C24.0939 14.6661 24.093 13.7898 24.6728 13.7898C26.1211 13.7898 27.4965 14.5502 28.3521 15.8236C29.3449 17.3008 30.7019 18.5499 32.3854 19.536C32.8848 19.8289 32.4428 20.5849 31.9425 20.2923Z" fill="#F9E5AF"/>
<path d="M15.877 29.9103C15.197 28.9814 13.8942 28.7794 12.9669 29.458L12.1301 30.0701L10.2123 31.4722L9.5852 30.6155C9.33932 30.2796 8.86788 30.2065 8.53192 30.4522L6.85 31.6818C6.51386 31.9275 6.44061 32.3994 6.68649 32.7354L10.3977 37.8092C10.6434 38.1452 11.1152 38.2184 11.4511 37.9727L13.1327 36.7433C13.469 36.4974 13.5421 36.0254 13.296 35.6893L12.6697 34.8335L14.6979 33.3511L15.4231 32.8202C16.347 32.1437 16.5591 30.8477 15.877 29.9103Z" fill="#AFAFAF"/>
<path d="M10.7835 36.78C10.6406 36.5848 10.6832 36.3105 10.8784 36.1678L11.2323 35.909L10.0442 34.2842C9.90139 34.089 9.94398 33.8147 10.1392 33.6718C10.3344 33.5292 10.6087 33.5716 10.7516 33.767L12.1981 35.7455C12.3409 35.9407 12.2984 36.215 12.1031 36.3576L11.3956 36.875C11.2016 37.0175 10.9268 36.9763 10.7835 36.78ZM9.00987 32.8695L8.4927 32.1622C8.34987 31.967 8.39245 31.6927 8.58769 31.5499C8.78292 31.4072 9.05719 31.4496 9.20003 31.645L9.7172 32.3524C9.86003 32.5476 9.81745 32.8219 9.62221 32.9647C9.42768 33.1068 9.15323 33.0656 9.00987 32.8695Z" fill="#EFEFEF"/>
<path d="M42.1494 31.6818L40.4687 30.4523C40.1328 30.2066 39.6612 30.2797 39.4153 30.6155L38.7886 31.4718L37.1466 30.2706L36.0338 29.458C35.1065 28.7794 33.8036 28.9814 33.1237 29.9103C32.4416 30.8477 32.6536 32.1437 33.5776 32.8204L34.4701 33.4734L36.331 34.8335L35.7045 35.6895C35.4584 36.0256 35.5316 36.4976 35.8678 36.7435L37.5492 37.9727C37.8853 38.2184 38.3569 38.1451 38.6028 37.809L42.3128 32.7352C42.5587 32.3993 42.4856 31.9276 42.1494 31.6818Z" fill="#AFAFAF"/>
<path d="M37.8626 36.9593C37.6777 36.9593 37.6583 36.9144 36.8968 36.3577C36.429 36.0154 36.9466 35.3086 37.414 35.6502L37.7678 35.909L38.9555 34.2844C39.2985 33.8152 40.0039 34.3352 39.663 34.8016L38.2166 36.7797C38.1308 36.8971 37.9978 36.9593 37.8626 36.9593ZM39.99 32.8697L40.5072 32.1624C40.8505 31.6934 41.5556 32.2132 41.2147 32.6796L40.6976 33.3869C40.3555 33.8543 39.6481 33.3373 39.99 32.8697Z" fill="#EFEFEF"/>
<path d="M24.6754 32.4902C28.7279 32.4902 32.013 29.917 32.013 26.7429C32.013 23.5688 28.7279 20.9956 24.6754 20.9956C20.623 20.9956 17.3379 23.5688 17.3379 26.7429C17.3379 29.917 20.623 32.4902 24.6754 32.4902Z" fill="#AFAFAF"/>
<path d="M25.1753 30.8281C25.1452 30.588 25.3155 30.3689 25.5556 30.3389C28.7712 29.9367 30.9098 27.4868 29.4491 25.2744C29.1291 24.7897 29.8618 24.3088 30.1803 24.7914C32.0166 27.5722 29.5266 30.7255 25.6645 31.2084C25.4279 31.239 25.2057 31.0703 25.1753 30.8281Z" fill="#EFEFEF"/>
<path d="M41.5258 18.0732C40.6572 20.4254 38.5598 22.1489 37.0715 23.1261C36.1909 23.7067 35.523 24.0262 35.452 24.0595C34.6511 22.3553 35.1835 23.4876 34.2969 21.6031C34.3254 21.5896 34.9316 21.2956 35.7098 20.7738C36.8617 20.0034 38.3892 18.7337 38.9804 17.1338L41.5258 18.0732Z" fill="#72C2E9"/>
<path d="M14.7035 21.6032L13.5484 24.0596C13.4851 24.0294 12.9497 23.773 12.2109 23.3072C10.718 22.3692 8.3989 20.578 7.47461 18.0734L10.0214 17.134C10.6215 18.7609 12.2666 20.1197 13.5167 20.9307C13.9978 21.2397 14.4199 21.4705 14.7035 21.6032Z" fill="#72C2E9"/>
<path d="M36.0685 12.5688C35.3901 12.3447 34.6894 12.1488 34.296 10.4542C33.9337 12.015 33.3531 12.2947 32.5234 12.5688C33.8768 13.0159 34.0809 13.7564 34.296 14.6835C34.6668 13.0853 35.2802 12.8293 36.0685 12.5688Z" fill="#F0C020"/>
<path d="M7.99817 26.5638C7.31976 26.3397 6.6191 26.1438 6.22565 24.4492C5.8634 26.01 5.28278 26.2897 4.45312 26.5638C5.80644 27.0109 6.01061 27.7514 6.22565 28.6785C6.59649 27.0803 7.2097 26.8243 7.99817 26.5638Z" fill="#F0C020"/>
<path d="M44.547 25.0322C43.8686 24.8081 43.1679 24.6121 42.7745 22.9176C42.4122 24.4784 41.8316 24.7581 41.002 25.0322C42.3553 25.4793 42.5594 26.2197 42.7745 27.1468C43.1453 25.5489 43.7587 25.2928 44.547 25.0322Z" fill="#F0C020"/>
<path d="M22.7151 32.2928C22.6706 32.5603 22.8739 32.8028 23.148 32.8028C23.3618 32.8028 23.5441 32.6486 23.5791 32.4365C23.6205 32.1884 23.4487 31.9721 23.2198 31.9335C22.9815 31.8948 22.7537 32.058 22.7151 32.2928Z" fill="black"/>
<path d="M24.8829 32.0491C24.631 32.0568 24.4484 32.2664 24.4554 32.498C24.4607 32.7345 24.657 32.9254 24.8936 32.9254C24.8971 32.9254 24.9006 32.9254 24.9041 32.9254C29.1039 32.8302 32.4507 30.1001 32.4507 26.7426C32.4507 22.9432 28.5005 20.5579 24.6764 20.5579C20.3655 20.5579 16.9004 23.3267 16.9004 26.7426C16.9042 29.3274 18.8459 31.3826 21.301 32.319C21.5219 32.4031 21.783 32.2841 21.8671 32.0668C21.9547 31.8407 21.8408 31.5866 21.6147 31.5008C20.4211 31.0421 19.4561 30.3521 18.7919 29.5221H30.549C29.2353 31.1592 27.0404 32.0015 24.8829 32.0491ZM24.6728 21.4341H24.678C26.5411 21.4341 28.4546 22.0076 29.868 23.2531H19.4828C20.8964 22.0076 22.8133 21.4341 24.6728 21.4341ZM18.6738 24.1294H30.6768C31.0929 24.6923 31.3717 25.3074 31.4972 25.9503H17.8536C17.9789 25.3074 18.2577 24.6923 18.6738 24.1294ZM18.2318 28.6457C17.9479 28.0747 17.7914 27.4613 17.78 26.8264H31.5716C31.5589 27.4559 31.4024 28.07 31.1141 28.6457H18.2318Z" fill="black"/>
<path d="M42.4063 31.3292L40.7256 30.0987C40.1985 29.7126 39.4508 29.8235 39.059 30.3565L38.6909 30.8598L37.6685 30.1122C38.3392 28.1842 38.3665 25.5177 37.5977 23.299C39.1666 22.2231 41.0888 20.5168 41.9352 18.225C42.019 17.9979 41.9028 17.746 41.676 17.6621C41.4491 17.5783 41.1971 17.6943 41.1131 17.9213C40.2978 20.1299 38.3366 21.7695 36.8327 22.7575C36.8322 22.7578 36.8318 22.7582 36.8313 22.7585C36.8304 22.759 36.8297 22.7596 36.8288 22.7601C36.3495 23.0761 35.9359 23.312 35.6546 23.4634L34.8709 21.7969C35.1355 21.6518 35.5162 21.4301 35.9519 21.1377C37.1727 20.3212 38.76 18.9902 39.3898 17.2855C39.4738 17.0585 39.3576 16.8067 39.1306 16.7227C38.9044 16.6391 38.6518 16.7548 38.5679 16.9819C38.0709 18.3268 36.8411 19.4362 35.7861 20.187C35.0809 19.3875 34.2207 18.6884 33.2247 18.1043C31.7578 17.2455 30.5819 16.1658 29.7302 14.8989C28.604 13.2199 26.7489 12.1316 24.6741 12.1316C22.6138 12.1316 20.7633 13.2049 19.6302 14.8831C19.4946 15.0794 19.5449 15.3572 19.7477 15.4912C19.9422 15.6227 20.2261 15.5666 20.3558 15.3738C21.3582 13.8929 22.9723 13.0079 24.6741 13.0079C26.381 13.0079 28.0002 13.8964 29.0028 15.3878C29.9299 16.7671 31.2005 17.936 32.7813 18.8612C33.6599 19.3745 34.4193 19.9849 35.0477 20.6782C34.5002 21.0173 34.1126 21.2049 34.1082 21.207C33.8898 21.3104 33.7964 21.5708 33.8991 21.7895L35.0542 24.2457C35.1289 24.4045 35.2864 24.4977 35.4512 24.4977C35.6767 24.4977 36.651 23.9076 36.839 23.7922C37.447 25.6989 37.4214 27.9499 36.9265 29.5687L36.2901 29.1039C35.169 28.2836 33.5889 28.5295 32.7668 29.6523C31.9927 30.7173 32.1764 32.1926 33.1529 33.0407C33.2827 33.1536 33.284 33.1499 33.6722 33.434C31.6396 34.5272 28.6856 35.0598 24.6741 35.0598C20.5375 35.0598 17.5189 34.4907 15.4788 33.3232L15.6828 33.1741L15.683 33.1739C16.8008 32.3551 17.0424 30.7659 16.2313 29.6514C15.4099 28.5296 13.8297 28.2831 12.7084 29.1038L12.3624 29.3568C11.9432 27.8274 11.9274 25.7573 12.4557 23.9683C12.9411 24.2522 13.2811 24.4175 13.3595 24.4548C13.578 24.5589 13.8409 24.4653 13.9441 24.2455L15.099 21.7892C15.2024 21.5696 15.1069 21.3081 14.8882 21.2059C14.7794 21.1551 14.5291 21.0317 14.1721 20.8205C14.8269 20.0673 15.6299 19.4082 16.5671 18.861C17.0158 18.5981 17.4487 18.3091 17.8518 18.0024C18.0445 17.857 18.0813 17.5818 17.9359 17.3891C17.7939 17.2031 17.5083 17.163 17.3207 17.3049C16.9457 17.5906 16.5426 17.8605 16.1255 18.1043C15.0656 18.7234 14.1614 19.4758 13.4285 20.3438C12.4252 19.6505 10.9714 18.4448 10.4318 16.9821C10.3481 16.7552 10.0962 16.6386 9.86908 16.7227C9.64213 16.8065 9.52594 17.0583 9.60971 17.2855C10.3049 19.1703 12.3698 20.8523 14.1255 21.8014L13.344 23.4632C11.1418 22.2781 8.7613 20.2957 7.8852 17.9217C7.80126 17.6947 7.54942 17.5782 7.32246 17.6623C7.09551 17.7462 6.97931 17.9981 7.06326 18.225C7.98755 20.7296 10.244 22.5412 11.6863 23.4907C11.0137 25.5764 11.0258 28.0624 11.6129 29.9063L10.3079 30.8603L9.93971 30.3568C9.55152 29.8269 8.80424 29.7109 8.27427 30.0985L6.59235 31.3283C6.06063 31.7173 5.94461 32.4622 6.33367 32.9942L10.0449 38.068C10.4322 38.5978 11.1789 38.7149 11.7105 38.3269L13.3921 37.0975C13.9241 36.7082 14.0396 35.9631 13.6504 35.431L13.283 34.9287L14.7143 33.8823C16.9201 35.2808 20.0968 35.9362 24.6741 35.9362C29.1296 35.9362 32.2456 35.3181 34.4452 33.9993L35.7167 34.9291L35.349 35.432C34.9655 35.9503 35.0682 36.7032 35.6066 37.097L37.2891 38.3272C37.8183 38.7137 38.5661 38.6027 38.954 38.068L39.5604 37.2391C39.7041 37.0428 39.6603 36.7694 39.4657 36.6257C39.2784 36.489 38.9927 36.5328 38.856 36.7186C38.8543 36.7203 38.8543 36.7203 38.8543 36.7221L38.2479 37.551C38.1459 37.6886 37.9466 37.7237 37.8061 37.6194L36.1236 36.3909C35.9848 36.2883 35.9512 36.0868 36.0551 35.951L39.7672 30.8756C39.8676 30.7364 40.0593 30.703 40.2088 30.8055L41.8895 32.036C42.0222 32.1341 42.0642 32.3272 41.9561 32.4776L40.9223 33.8919C40.7845 34.0824 40.8157 34.3549 41.0187 34.5053C41.2062 34.6418 41.4936 34.5964 41.6303 34.4089L42.6641 32.9946C43.0518 32.465 42.9375 31.7145 42.4063 31.3292ZM12.8743 36.3902L11.193 37.6194C11.0526 37.7219 10.8544 37.6914 10.7517 37.5509L7.04048 32.4771C6.93567 32.3337 6.97072 32.1366 7.109 32.0358L8.79092 30.806C8.93095 30.7035 9.12916 30.7336 9.23203 30.8744C11.9968 34.655 11.3852 33.8186 12.3165 35.0922L12.3167 35.0924L12.9427 35.9483C13.0472 36.091 13.0133 36.2885 12.8743 36.3902ZM15.1642 32.4666L14.4388 32.9972C14.4378 32.9979 14.4371 32.999 14.436 32.9999L12.7653 34.2214L10.8246 31.5677L13.2261 29.8116C13.9569 29.2769 14.9877 29.4371 15.5226 30.1677C16.0433 30.883 15.9112 31.9206 15.1642 32.4666ZM36.2335 34.2216C33.8618 32.4874 34.2838 32.796 33.8336 32.4666C33.1059 31.934 32.9413 30.9028 33.4748 30.1693C34.0123 29.4359 35.0386 29.2838 35.7614 29.8041C35.7652 29.8069 35.7694 29.8092 35.7733 29.812L38.1741 31.5673C36.2735 34.167 36.641 33.6644 36.2335 34.2216Z" fill="black"/>
<path d="M40.5967 35.8225C40.7362 35.6297 40.7008 35.3558 40.5003 35.2108C40.3128 35.0724 40.0254 35.1181 39.8887 35.3055C39.7467 35.5 39.789 35.7753 39.9833 35.9189C40.1843 36.0638 40.4577 36.0149 40.5967 35.8225Z" fill="black"/>
<path d="M18.5778 16.1886C18.4082 16.3621 18.4164 16.6408 18.5901 16.8073C18.7622 16.9722 19.0366 16.9743 19.2105 16.7932C19.377 16.6199 19.3717 16.3411 19.1965 16.1748C19.0282 16.0118 18.739 16.0188 18.5778 16.1886Z" fill="black"/>
<path d="M33.8516 14.7865C33.9608 15.2563 34.6301 15.2562 34.7392 14.7865C35.0656 13.3797 35.5459 13.2211 36.2109 13.0015C36.626 12.8643 36.6271 12.2737 36.2109 12.1363C35.572 11.926 35.0733 11.7898 34.7392 10.3511C34.6306 9.88234 33.9602 9.88357 33.8518 10.3511C33.5251 11.7579 33.0696 11.9085 32.3801 12.1365C31.965 12.2735 31.9639 12.8641 32.3801 13.0017C33.5253 13.3797 33.6551 13.9393 33.8516 14.7865ZM34.2971 11.7847C34.5026 12.1549 34.7366 12.3999 34.9785 12.5728C34.7263 12.75 34.4998 12.9878 34.3044 13.3333C34.1432 13.0613 33.919 12.804 33.5911 12.5792C33.8565 12.3972 34.0938 12.1503 34.2971 11.7847Z" fill="black"/>
<path d="M5.78322 28.7814C5.8924 29.2512 6.5617 29.2512 6.67088 28.7814C6.9972 27.3748 7.47758 27.216 8.14249 26.9964C8.55767 26.8592 8.55872 26.2686 8.14249 26.1312C7.50369 25.9207 7.00491 25.7847 6.67088 24.346C6.56222 23.8772 5.89187 23.8784 5.78339 24.346C5.45672 25.7528 5.00123 25.9033 4.31178 26.1313C3.8966 26.2684 3.89555 26.859 4.31178 26.9966C5.45689 27.3748 5.58676 27.9344 5.78322 28.7814ZM6.22889 25.7798C6.43446 26.1499 6.66843 26.3951 6.91028 26.5681C6.65809 26.7453 6.43166 26.9831 6.23625 27.3285C6.07501 27.0567 5.85086 26.7992 5.52296 26.5744C5.78812 26.3923 6.02559 26.1454 6.22889 25.7798Z" fill="black"/>
<path d="M43.2158 27.2499C43.5421 25.8431 44.0225 25.6845 44.6874 25.4649C45.1026 25.3277 45.1036 24.7371 44.6874 24.5997C44.0486 24.3894 43.5498 24.2532 43.2158 22.8145C43.1071 22.3457 42.4368 22.3469 42.3283 22.8145C42.0016 24.2213 41.5462 24.3718 40.8567 24.5998C40.4415 24.7369 40.4405 25.3275 40.8567 25.4651C42.002 25.8434 42.1318 26.403 42.3283 27.25C42.4373 27.7197 43.1066 27.7197 43.2158 27.2499ZM42.0677 25.0427C42.3329 24.8608 42.5703 24.6139 42.7736 24.2483C42.9792 24.6184 43.2132 24.8634 43.455 25.0364C43.2028 25.2136 42.9764 25.4514 42.781 25.7968C42.6198 25.525 42.3956 25.2677 42.0677 25.0427Z" fill="black"/>
</svg>
