<svg width="48" height="48" viewBox="0 0 48 48" fill="none" xmlns="http://www.w3.org/2000/svg">
<g clip-path="url(#clip0_63060_40972)">
<path d="M0 16.6669H3.5249V23.87H0V16.6669Z" fill="#D3E6F8"/>
<path d="M44.4766 16.6669H48.0015V23.87H44.4766V16.6669Z" fill="#A4CFF2"/>
<path d="M3.52344 16.6669V26.6022C3.52344 29.0715 5.52514 31.0732 7.9943 31.0732H16.86C19.3293 31.0732 21.3309 29.0715 21.3309 26.6022V23.8699H26.6666V26.6022C26.6666 29.0715 28.6683 31.0732 31.1374 31.0732H40.0032C42.4725 31.0732 44.4741 29.0715 44.4741 26.6022V16.6669H3.52344Z" fill="#7BABF1"/>
<path d="M40.0062 31.7402H31.1405C28.3074 31.7402 26.0025 29.4354 26.0025 26.6024V24.5371H22.0008V26.6024C22.0008 29.4354 19.6959 31.7402 16.863 31.7402H7.99713C5.16426 31.7402 2.85938 29.4354 2.85938 26.6024V16.667C2.85937 16.4901 2.92965 16.3204 3.05474 16.1954C3.17982 16.0703 3.34948 16 3.52638 16H44.4772C44.6541 16 44.8237 16.0703 44.9488 16.1954C45.0738 16.3205 45.1441 16.4901 45.1441 16.667V26.6024C45.1441 29.4354 42.8393 31.7402 40.0062 31.7402ZM21.3339 23.2032H26.6696C26.8465 23.2032 27.0162 23.2734 27.1413 23.3985C27.2664 23.5236 27.3366 23.6933 27.3366 23.8702V26.6024C27.3366 28.7 29.0431 30.4063 31.1406 30.4063H40.0063C42.1039 30.4063 43.8103 28.6998 43.8103 26.6024V17.3339H4.19327V26.6024C4.19327 28.7 5.89975 30.4063 7.99724 30.4063H16.8631C18.9606 30.4063 20.667 28.6998 20.667 26.6024V23.8702C20.667 23.7826 20.6843 23.6958 20.7178 23.6149C20.7513 23.534 20.8004 23.4605 20.8623 23.3985C20.9243 23.3366 20.9978 23.2875 21.0787 23.2539C21.1596 23.2204 21.2464 23.2032 21.3339 23.2032Z" fill="#4C4372"/>
<path d="M11.1026 27.1603C11.015 27.1604 10.9283 27.1432 10.8473 27.1097C10.7664 27.0762 10.6928 27.027 10.631 26.9649L8.00755 24.3416C7.88691 24.2156 7.82041 24.0474 7.8223 23.873C7.8242 23.6986 7.89432 23.5318 8.01766 23.4085C8.141 23.2852 8.30774 23.215 8.48215 23.2132C8.65657 23.2113 8.82479 23.2778 8.95077 23.3984L11.5742 26.0217C11.6675 26.115 11.7311 26.2338 11.7568 26.3632C11.7826 26.4926 11.7694 26.6267 11.7189 26.7486C11.6684 26.8704 11.5829 26.9746 11.4732 27.0479C11.3635 27.1212 11.2346 27.1603 11.1026 27.1603ZM15.9825 27.1269C15.8949 27.1271 15.8081 27.1099 15.7272 27.0763C15.6462 27.0428 15.5727 26.9936 15.5108 26.9316L9.31926 20.7399C9.25732 20.678 9.20818 20.6045 9.17466 20.5236C9.14114 20.4426 9.12388 20.3559 9.12388 20.2683C9.12388 20.1807 9.14114 20.094 9.17466 20.0131C9.20818 19.9321 9.25732 19.8586 9.31926 19.7967C9.38119 19.7348 9.45471 19.6856 9.53563 19.6521C9.61655 19.6186 9.70328 19.6013 9.79087 19.6013C9.87846 19.6013 9.96519 19.6186 10.0461 19.6521C10.127 19.6856 10.2006 19.7348 10.2625 19.7967L16.454 25.9884C16.5473 26.0816 16.6109 26.2005 16.6367 26.3298C16.6624 26.4592 16.6492 26.5933 16.5987 26.7152C16.5482 26.8371 16.4628 26.9413 16.3531 27.0146C16.2434 27.0878 16.1144 27.127 15.9825 27.1269ZM34.8019 27.1603C34.6312 27.1603 34.4606 27.0952 34.3303 26.9649L31.7069 24.3416C31.5863 24.2156 31.5198 24.0474 31.5217 23.873C31.5235 23.6986 31.5937 23.5318 31.717 23.4085C31.8403 23.2852 32.0071 23.215 32.1815 23.2132C32.3559 23.2113 32.5241 23.2778 32.6501 23.3984L35.2735 26.0217C35.3667 26.115 35.4302 26.2339 35.4559 26.3632C35.4816 26.4926 35.4683 26.6266 35.4179 26.7485C35.3674 26.8703 35.2819 26.9745 35.1723 27.0478C35.0627 27.121 34.9338 27.1602 34.8019 27.1603ZM39.6818 27.1269C39.5942 27.127 39.5075 27.1098 39.4265 27.0763C39.3456 27.0428 39.2721 26.9936 39.2102 26.9316L33.0185 20.7399C32.8979 20.6139 32.8314 20.4457 32.8332 20.2713C32.8351 20.0969 32.9053 19.9301 33.0286 19.8068C33.1519 19.6835 33.3187 19.6133 33.4931 19.6115C33.6675 19.6096 33.8357 19.6761 33.9617 19.7967L40.1534 25.9884C40.2467 26.0816 40.3102 26.2005 40.336 26.3298C40.3618 26.4592 40.3486 26.5933 40.2981 26.7152C40.2476 26.8371 40.1621 26.9413 40.0524 27.0146C39.9427 27.0878 39.8138 27.127 39.6818 27.1269Z" fill="#4C4372"/>
</g>
<defs>
<clipPath id="clip0_63060_40972">
<rect width="48" height="48" fill="white"/>
</clipPath>
</defs>
</svg>
