<svg width="48" height="48" viewBox="0 0 48 48" fill="none" xmlns="http://www.w3.org/2000/svg">
<path d="M24.3631 9.51624C15.6108 9.51624 8.51559 16.6115 8.51559 25.3638V33.2383H40.2108V25.3638C40.2107 16.6114 33.1155 9.51624 24.3631 9.51624ZM43.0894 39.4809H5.6369C3.9131 39.4809 2.51562 38.0836 2.51562 36.3597C2.51562 34.6358 3.9131 33.2384 5.6369 33.2384H43.0894C44.8133 33.2384 46.2108 34.6359 46.2108 36.3597C46.2108 38.0835 44.8133 39.4809 43.0894 39.4809Z" fill="#FD919E"/>
<path d="M46.2018 36.5451H2.52539C2.62181 38.1821 3.97605 39.4809 5.63733 39.4809H43.0899C44.7511 39.4809 46.1054 38.1821 46.2018 36.5451ZM24.3636 9.51624C23.7549 9.51624 23.1546 9.55181 22.5638 9.61855C30.4685 10.5123 36.6116 17.2201 36.6116 25.3638V33.2384H40.2111V25.3638C40.2111 16.6114 33.116 9.51624 24.3636 9.51624Z" fill="#E8677D"/>
<path d="M24.3632 9.51624C23.1517 9.51552 21.9439 9.65337 20.7637 9.92709V33.2384H27.9629V9.927C26.7826 9.65336 25.5749 9.51554 24.3632 9.51624Z" fill="#FD919E"/>
<path d="M40.2114 33.7546H8.51625C8.37933 33.7546 8.24802 33.7002 8.15121 33.6034C8.05439 33.5065 8 33.3752 8 33.2383V25.3638C8 16.3407 15.3407 9 24.3638 9C33.3869 9 40.7276 16.3407 40.7276 25.3638V33.2383C40.7276 33.3752 40.6732 33.5065 40.5764 33.6034C40.4796 33.7002 40.3483 33.7546 40.2114 33.7546ZM9.03241 32.7222H39.6951V25.3638C39.6951 16.9101 32.8175 10.0324 24.3637 10.0324C15.9099 10.0324 9.03241 16.9101 9.03241 25.3638V32.7222Z" fill="#4C4372"/>
<path d="M43.09 39.9971H5.63744C3.63178 39.9971 2 38.3653 2 36.3596C2 34.3538 3.63178 32.722 5.63744 32.722H43.09C45.0957 32.722 46.7275 34.3538 46.7275 36.3596C46.7275 38.3654 45.0958 39.9971 43.09 39.9971ZM5.63744 33.7545C4.20104 33.7545 3.03241 34.9232 3.03241 36.3596C3.03241 37.7961 4.20104 38.9647 5.63744 38.9647H43.09C44.5264 38.9647 45.695 37.7961 45.695 36.3596C45.695 34.9232 44.5264 33.7545 43.09 33.7545H5.63744Z" fill="#4C4372"/>
<path d="M27.9634 33.7546H20.7642C20.6273 33.7546 20.496 33.7002 20.3992 33.6033C20.3024 33.5065 20.248 33.3752 20.248 33.2383V9.92711C20.248 9.81051 20.2875 9.69735 20.3601 9.60605C20.4326 9.51476 20.5339 9.4507 20.6475 9.42433C23.0714 8.86132 25.6564 8.86132 28.0802 9.42433C28.1938 9.45072 28.2951 9.51477 28.3676 9.60607C28.4401 9.69736 28.4796 9.81051 28.4796 9.92711V33.2384C28.4796 33.3062 28.4663 33.3733 28.4403 33.436C28.4144 33.4986 28.3764 33.5555 28.3285 33.6034C28.2805 33.6514 28.2236 33.6894 28.161 33.7153C28.0984 33.7412 28.0312 33.7546 27.9634 33.7546ZM21.2805 32.7222H27.4473V10.3428C25.4275 9.93072 23.3005 9.93072 21.2805 10.3428V32.7222Z" fill="#4C4372"/>
</svg>
