<svg width="48" height="48" viewBox="0 0 48 48" fill="none" xmlns="http://www.w3.org/2000/svg">
<path d="M35.9501 16.3597V6.87176C35.9501 5.9049 35.1663 5.12109 34.1994 5.12109H29.3018C28.5163 5.12109 27.8268 5.64432 27.6155 6.40106L24.5016 17.5547L21.3879 6.40106C21.1766 5.64432 20.4873 5.12109 19.7016 5.12109H14.8042C13.8373 5.12109 13.0535 5.9049 13.0535 6.87176V16.3597C13.0535 16.7283 12.9372 17.0873 12.7212 17.386L7.90654 24.0407C7.69049 24.3392 7.57422 24.6984 7.57422 25.067V42.1282C7.57422 43.0951 8.35802 43.8789 9.32489 43.8789C9.63431 43.8789 39.9336 43.8789 39.6787 43.8789C40.6455 43.8789 41.4293 43.0951 41.4293 42.1282V25.067C41.4293 24.6984 41.3131 24.3394 41.097 24.0407L36.2824 17.386C36.0663 17.0875 35.9501 16.7283 35.9501 16.3597Z" fill="#FC5D3D"/>
<path d="M41.4293 28.0889H7.57422V32.047H41.4293V28.0889Z" fill="#EFEFEF"/>
<path d="M38.9277 35.7046V32.0482C38.9277 31.8272 39.1071 31.6478 39.3281 31.6478C39.5491 31.6478 39.7285 31.8272 39.7285 32.0482V35.7046C39.7285 36.2336 38.9277 36.2342 38.9277 35.7046Z" fill="#FFCBC3"/>
<path d="M39.3304 42.1783H15.1796C14.6506 42.1783 14.6498 41.3776 15.1796 41.3776H38.93V39.6631C38.93 39.4419 39.1092 39.2627 39.3304 39.2627C39.5516 39.2627 39.7308 39.4419 39.7308 39.6631V41.7779C39.7308 41.9991 39.5514 42.1783 39.3304 42.1783ZM13.5781 42.1783H9.67634C9.14735 42.1783 9.14655 41.3776 9.67634 41.3776H13.5779C14.1071 41.3776 14.1079 42.1783 13.5781 42.1783Z" fill="#FFCBC3"/>
<path d="M38.9286 28.089V25.3103L33.9237 18.3932C33.613 17.964 33.4478 17.4563 33.4478 16.9262V7.62268H29.5689C29.0399 7.62268 29.0392 6.8219 29.5689 6.8219H33.8482C34.0705 6.8219 34.2486 6.99999 34.2486 7.22229V16.9262C34.2486 17.2865 34.3607 17.6308 34.5723 17.9239L39.6525 24.9468C39.7023 25.014 39.7293 25.0973 39.7293 25.1806V28.089C39.7293 28.618 38.9286 28.6185 38.9286 28.089Z" fill="#FFCBC3"/>
<path d="M39.3281 32.447C39.1071 32.447 38.9277 32.2676 38.9277 32.0482V29.4889C38.9277 28.9602 39.7285 28.9596 39.7285 29.4889V32.0482C39.7285 32.2676 39.549 32.447 39.3281 32.447Z" fill="white"/>
<path d="M41.4293 35.7047H7.57422V39.6628H41.4293V35.7047Z" fill="#EFEFEF"/>
<path d="M39.3281 40.0624C39.1071 40.0624 38.9277 39.883 38.9277 39.6636V37.1043C38.9277 36.5756 39.7285 36.575 39.7285 37.1043V39.6636C39.7285 39.883 39.549 40.0624 39.3281 40.0624Z" fill="white"/>
<path d="M13.0547 12.4354C13.2758 12.4354 13.4551 12.2562 13.4551 12.035C13.4551 11.8139 13.2758 11.6346 13.0547 11.6346C12.8336 11.6346 12.6543 11.8139 12.6543 12.035C12.6543 12.2562 12.8336 12.4354 13.0547 12.4354Z" fill="black"/>
<path d="M12.6529 16.3593C12.6529 16.6459 12.5648 16.9198 12.3967 17.152L7.58223 23.8065C7.31477 24.1749 7.17383 24.6105 7.17383 25.067C7.17383 26.7316 7.17383 40.1993 7.17383 42.1284C7.17383 43.3136 8.13813 44.2793 9.32489 44.2793H39.6777C40.8645 44.2793 41.8286 43.3136 41.8286 42.1284C41.8286 40.245 41.8286 27.0495 41.8286 25.067C41.8286 24.6105 41.6877 24.1749 41.4202 23.8065L36.6059 17.1504C36.4377 16.9198 36.3495 16.6459 36.3495 16.3593V6.8716C36.3495 5.68645 35.3839 4.7207 34.1986 4.7207H29.301C28.3401 4.7207 27.488 5.36773 27.2288 6.29344L24.5013 16.0646L21.7722 6.29344C21.5144 5.36773 20.6623 4.7207 19.7014 4.7207H14.8038C13.6171 4.7207 12.6528 5.68645 12.6528 6.8716V10.4335C12.6528 10.6545 12.8321 10.8339 13.0532 10.8339C13.2742 10.8339 13.4536 10.6545 13.4536 10.4335V6.8716C13.4536 6.12848 14.0605 5.52309 14.8038 5.52148H19.7014C20.3052 5.52148 20.84 5.92668 21.0017 6.50805L24.1009 17.6114V27.6886H15.5822C15.3612 27.6886 15.1802 27.8679 15.1802 28.0889C15.1802 28.31 15.3612 28.4893 15.5822 28.4893H24.1009V31.646H7.97477V28.4893H12.3775C12.5985 28.4893 12.7779 28.31 12.7779 28.0889C12.7779 27.8679 12.5985 27.6886 12.3775 27.6886H7.97477V25.0668C7.97477 24.7801 8.06286 24.5078 8.23118 24.2756L13.0455 17.6211C13.3129 17.2512 13.4539 16.8155 13.4539 16.3591V13.6364C13.4539 13.4154 13.2745 13.2361 13.0535 13.2361C12.8325 13.2361 12.6531 13.4154 12.6531 13.6364L12.6529 16.3593ZM24.9017 17.6114L28.0007 6.50965C28.1625 5.92668 28.6975 5.52148 29.3012 5.52148H34.1988C34.9419 5.52309 35.5473 6.12848 35.5489 6.8716V16.3593C35.5489 16.8157 35.6898 17.2513 35.9574 17.6213L40.7717 24.2758C40.9399 24.508 41.028 24.7803 41.028 25.067V27.6887H24.9017V17.6114ZM24.9017 28.4895H41.0277V31.6462H24.9017V28.4895ZM24.9017 36.1049H29.0177C29.2387 36.1049 29.4181 35.9255 29.4181 35.7045C29.4181 35.4835 29.2387 35.3041 29.0177 35.3041H24.9017V32.447H41.0277V35.3041H32.2208C31.9996 35.3041 31.8204 35.4835 31.8204 35.7045C31.8204 35.9255 31.9996 36.1049 32.2208 36.1049H41.0277V39.2616H24.9017V36.1049ZM24.9017 40.0624H41.0277V42.1284C41.0277 42.8715 40.4207 43.4769 39.6775 43.4785H24.9017V40.0624ZM24.1009 43.4785H9.32489C8.5816 43.4769 7.97461 42.8715 7.97461 42.1284V40.0624H24.1009V43.4785ZM24.1009 39.2616H7.97477V36.1049H24.1009V39.2616ZM24.1009 32.447V35.3041H7.97477V32.447H24.1009Z" fill="black"/>
<path d="M14.3793 28.0891C14.3793 27.8681 14.1999 27.6887 13.9805 27.6887C13.7595 27.6887 13.5801 27.8681 13.5801 28.0891C13.5801 28.3101 13.7595 28.4895 13.9805 28.4895C14.1999 28.4895 14.3793 28.3101 14.3793 28.0891Z" fill="black"/>
<path d="M30.6191 36.1049C30.8403 36.1049 31.0195 35.9256 31.0195 35.7045C31.0195 35.4833 30.8403 35.3041 30.6191 35.3041C30.398 35.3041 30.2188 35.4833 30.2188 35.7045C30.2188 35.9256 30.398 36.1049 30.6191 36.1049Z" fill="black"/>
</svg>
