<svg width="145" height="40" viewBox="0 0 145 40" fill="none" xmlns="http://www.w3.org/2000/svg">
<path fill-rule="evenodd" clip-rule="evenodd" d="M38.4745 13.326C38.2949 13.3752 38.1666 13.3752 38.0383 13.3752H29.4934H29.4165C29.0829 13.3752 29.0829 13.3752 29.0572 13.0551C28.8519 11.4052 27.9282 10.1986 26.5425 9.28739C25.4393 8.57338 24.2076 8.15462 22.8989 7.98231C20.8205 7.68677 18.7933 7.90846 16.8945 8.79492C15.2522 9.55831 13.8666 10.6665 12.6862 12.0209C10.9157 14.0648 9.7353 16.4041 9.06814 18.9898C8.63206 20.615 8.42678 22.2649 8.52942 23.9394C8.65772 25.9341 9.14512 27.8056 10.2998 29.4801C11.1209 30.6621 12.173 31.5732 13.5587 32.0904C13.7383 32.1642 13.7896 32.2381 13.7639 32.4352C13.61 33.4693 13.4817 34.5036 13.3534 35.5625C13.2636 36.1904 13.1802 36.8184 13.0968 37.4462C13.0135 38.0742 12.9301 38.7022 12.8402 39.3301C12.7889 39.6502 12.7889 39.6502 12.4553 39.6256C9.45304 39.2808 6.81019 38.2467 4.62908 36.2027C3.06382 34.7252 1.98609 32.9522 1.26761 31.0069C0.677428 29.4063 0.318187 27.7563 0.138566 26.0572C-0.0153948 24.4812 -0.0410569 22.9298 0.0615836 21.3538C0.395165 16.3057 2.01175 11.7254 5.29625 7.73601C8.19584 4.21463 11.8651 1.82602 16.3813 0.668634C18.7933 0.0529472 21.231 -0.0947483 23.7201 0.0529478C25.465 0.176171 27.1584 0.446946 28.8263 0.988784C31.6489 1.89986 33.984 3.42663 35.7032 5.79062C36.9092 7.416 37.6534 9.21354 38.1152 11.1589C38.2949 11.8731 38.4232 12.6118 38.5001 13.3752L38.4745 13.326ZM50.0726 38.7812C50.1752 38.0672 50.2778 37.3777 50.3805 36.6883C50.6371 35.0385 50.8937 33.3883 51.1246 31.7385C51.2522 30.906 51.3798 30.0796 51.5074 29.2533L51.5095 29.2391C51.6378 28.408 51.7661 27.5768 51.8944 26.7396C51.9458 26.3456 51.9971 25.9516 51.8944 25.5822C51.6635 24.6463 50.8167 23.9568 49.816 23.883C48.1482 23.7599 46.6343 24.9419 46.4033 26.5179C46.2108 27.786 46.0247 29.0482 45.8388 30.3102C45.6529 31.572 45.4666 32.8343 45.2743 34.1025C45.1716 34.8166 45.0625 35.5308 44.9534 36.2449C44.8445 36.9588 44.7353 37.6734 44.6328 38.3872C44.6328 38.4242 44.6199 38.4611 44.6071 38.498C44.5942 38.5349 44.5814 38.5719 44.5814 38.6088C44.5814 38.7566 44.4788 38.8058 44.3505 38.7812H44.1196H37.6789H37.5249C37.3692 38.7812 37.2923 38.7812 37.2576 38.743C37.2236 38.7057 37.23 38.6318 37.2427 38.4857C37.6532 35.7031 38.0638 32.9205 38.5 30.1623C38.6669 29.0666 38.8336 27.9648 39.0003 26.8628L39.0019 26.8532C39.1682 25.7544 39.3345 24.6555 39.5007 23.5628C39.6547 22.5659 39.8022 21.5628 39.9496 20.5597C40.0971 19.5561 40.2449 18.5516 40.3988 17.5544C40.4245 17.3573 40.4758 17.2588 40.7068 17.2588H47.6607C47.6607 17.2588 47.712 17.2588 47.789 17.2834C47.7298 17.7154 47.665 18.1524 47.5999 18.5924C47.524 19.1055 47.4473 19.6231 47.3784 20.1399C47.4997 20.1399 47.5414 20.0635 47.5787 19.9949C47.5887 19.9765 47.5984 19.9586 47.6093 19.943C49.1489 18.2191 51.1246 17.2588 53.4597 16.9387C54.7427 16.7664 56 16.8648 57.2317 17.2834C58.5917 17.7513 59.6951 18.5393 60.4136 19.7705L60.4649 19.8199C60.5531 19.8199 60.5928 19.7616 60.6339 19.7012C60.6527 19.6739 60.6718 19.646 60.6959 19.6228C62.2355 18.0961 64.1086 17.2096 66.3154 16.9141C67.7522 16.7417 69.1635 16.8894 70.4979 17.4311C71.6526 17.9237 72.5763 18.6379 73.2178 19.7213C73.2178 19.7316 73.2267 19.7418 73.237 19.7536C73.2515 19.7705 73.2692 19.791 73.2692 19.8199C73.3641 19.8199 73.4028 19.7659 73.4373 19.718C73.4495 19.7011 73.4611 19.6849 73.4744 19.6721C75.0141 18.0961 76.9129 17.2096 79.1453 16.9387C80.1974 16.8156 81.2495 16.8648 82.2759 17.1357C83.8923 17.5544 85.2266 18.3916 86.0734 19.8445C86.1851 19.8445 86.2427 19.7668 86.2953 19.696C86.3154 19.669 86.3346 19.6431 86.3557 19.6228C87.8953 18.0961 89.7685 17.2342 91.9496 16.9387C93.5662 16.7417 95.1058 16.9387 96.5684 17.6528C97.8258 18.2685 98.7752 19.2042 99.2371 20.5339C99.468 21.1742 99.5193 21.8391 99.4167 22.5287C99.2338 23.6251 99.0713 24.7411 98.9111 25.8418L98.8522 26.247C98.8446 26.2972 98.848 26.3496 98.8516 26.4034C98.8521 26.4131 98.8529 26.4228 98.8535 26.4326C98.8539 26.44 98.8543 26.4476 98.8546 26.4551C98.9266 26.2541 98.9921 26.0659 99.0574 25.8776C100.11 22.8734 101.906 20.4108 104.651 18.6379C106.524 17.4065 108.603 16.6924 110.861 16.4954C112.966 16.3231 115.018 16.4954 117.02 17.185C118.482 17.7021 119.713 18.5147 120.612 19.7459C121.279 20.6571 121.664 21.6913 121.843 22.7994C121.971 23.5382 122.023 24.277 121.997 25.0896C122.12 24.9913 122.162 24.8772 122.199 24.7724C122.203 24.7593 122.209 24.7462 122.213 24.7334C122.218 24.7205 122.223 24.708 122.228 24.6956C123.23 22.3562 124.743 20.4108 126.898 18.9333C128.72 17.6528 130.773 16.8894 133.005 16.5939C134.699 16.3724 136.367 16.3724 138.035 16.7664C141.704 17.6036 143.937 19.7953 144.733 23.3167C145.168 25.262 145.039 27.1828 144.578 29.1036C144.013 31.4183 143.012 33.536 141.397 35.3583C139.241 37.7962 136.496 39.2737 133.211 39.7909C131.183 40.1109 129.156 40.0617 127.18 39.4954C123.87 38.5349 121.895 36.3926 121.227 33.142L121.21 33.0483C121.14 32.6643 121.072 32.2979 121.048 31.9108C121.048 31.7877 121.048 31.6645 120.97 31.5168C120.843 31.8368 120.714 32.1572 120.56 32.4771C118.738 36.4419 115.608 38.9289 111.144 39.7415C108.68 40.1848 106.191 40.0863 103.83 39.2245C100.828 38.1655 99.0574 36.0971 98.4416 33.0928C98.339 32.5265 98.2876 31.96 98.2363 31.3937C98.2363 31.2705 98.2363 31.1474 98.1593 31.0243C98.1337 31.2089 98.1016 31.3937 98.0695 31.5783C98.0373 31.7631 98.0054 31.9477 97.9797 32.1325C97.8129 33.2036 97.6524 34.2748 97.4922 35.346C97.3318 36.4172 97.1713 37.4885 97.0046 38.5595C96.979 38.8058 96.9533 38.8058 96.6454 38.8058H91.8469H89.7428C89.4606 38.8058 89.4606 38.8058 89.4862 38.5349C89.582 37.938 89.672 37.3411 89.7619 36.7465C89.8645 36.0662 89.9669 35.3881 90.0764 34.718C90.333 33.0682 90.5896 31.4183 90.8205 29.7683L90.8658 29.4566C91.0049 28.4977 91.1461 27.5247 91.3081 26.5917C91.5647 25.1388 90.41 23.612 88.3828 23.9814C86.9715 24.2277 85.9451 25.3113 85.7398 26.6656C85.5604 27.8836 85.3809 29.0955 85.2014 30.3075C85.0216 31.5207 84.8419 32.7354 84.6621 33.9546C84.5467 34.7057 84.4376 35.4568 84.3285 36.2079C84.2196 36.9589 84.1105 37.71 83.9951 38.4611C83.9951 38.5349 83.9693 38.6088 83.9436 38.6828C83.9436 38.8059 83.8668 38.8551 83.7385 38.8551H83.5845H76.5793H76.2714L76.5023 37.2299C76.8103 35.2352 77.1182 33.2405 77.4261 31.2705C77.657 29.7931 77.888 28.3154 78.0933 26.838C78.1446 26.444 78.1959 26.0254 78.0933 25.6314C77.8623 24.6956 77.0155 24.0308 75.9891 23.9568C74.3212 23.8583 72.8329 25.0403 72.5763 26.6163L71.4986 33.7085C71.242 35.3337 71.0111 36.9343 70.7801 38.5595C70.7288 38.8797 70.7288 38.8797 70.3952 38.8797H63.5441C63.2362 38.8797 63.2105 38.8797 63.2619 38.5595C63.6723 35.9003 64.083 33.2402 64.4936 30.5565C64.5962 29.8913 64.6988 29.2201 64.8015 28.5488C64.9041 27.8783 65.0068 27.2068 65.1094 26.5425C65.3147 25.1388 64.2883 23.9814 62.8 23.9568C61.1577 23.9322 59.7721 25.0896 59.5412 26.6902C59.3615 27.9093 59.1755 29.1282 58.9894 30.3471C58.8035 31.566 58.6174 32.7849 58.4378 34.0039C58.3222 34.7549 58.2133 35.506 58.1042 36.2571C57.9951 37.0082 57.886 37.7592 57.7706 38.5103C57.7193 38.8551 57.7193 38.8551 57.4114 38.8551H50.3035H50.0982L50.0726 38.7812ZM121.766 25.5576H121.356H115.198H114.915C114.786 25.5576 114.762 25.5082 114.762 25.3851V24.671C114.659 23.3905 113.966 22.4547 112.759 22.11C111.118 21.642 109.63 21.9376 108.372 23.0703C107.859 23.5382 107.474 24.08 107.14 24.6956C106.114 26.6656 105.703 28.7588 105.678 30.9257C105.678 31.4922 105.755 32.0339 105.96 32.5511C106.293 33.4376 106.935 34.0039 107.859 34.2748C108.269 34.3979 108.705 34.4472 109.142 34.4472C110.63 34.4965 111.836 33.9546 112.759 32.8219C113.196 32.3048 113.479 31.7139 113.735 31.0982C113.837 30.8191 114.051 30.6796 114.376 30.6796H120.586C120.793 30.6796 120.883 30.6796 120.92 30.6353C120.949 30.6016 120.949 30.5422 120.946 30.4374C120.946 30.4071 120.945 30.3731 120.945 30.3348C121.022 28.8326 121.253 27.3797 121.714 25.927C121.723 25.8877 121.736 25.8511 121.75 25.8139C121.779 25.7337 121.809 25.6504 121.792 25.5328L121.766 25.5576ZM128.336 29.7436C128.336 31.0113 128.415 31.9161 128.823 32.748C129.259 33.6592 129.977 34.2502 131.03 34.4226C132.082 34.5949 133.082 34.4472 134.006 33.9546C134.904 33.4868 135.545 32.7726 136.034 31.9108C137.188 29.8177 137.701 27.5768 137.445 25.2128C137.367 24.5479 137.188 23.9076 136.804 23.3167C136.392 22.6517 135.777 22.1839 134.982 22.0114C133.852 21.7653 132.774 21.913 131.773 22.4794C130.926 22.9473 130.311 23.6368 129.85 24.4494C128.798 26.1977 128.412 28.1183 128.336 29.7436ZM25.9769 36.4725C26.5927 35.9308 27.1829 35.3643 27.7731 34.7488H27.8244C27.8857 34.9061 27.8819 35.0163 27.8777 35.1296C27.8767 35.1581 27.8756 35.1869 27.8756 35.2166V38.5163C27.8756 38.65 27.8756 38.7177 27.9095 38.752C27.9444 38.7872 28.0149 38.7872 28.1578 38.7872H35.0861C35.3894 38.7872 35.394 38.7633 35.443 38.5037L35.4453 38.4917C35.5811 37.7973 35.6967 37.0836 35.8101 36.3846C35.8255 36.2904 35.8407 36.1966 35.8559 36.1031C36.1315 34.4097 36.4147 32.7234 36.6973 31.0404C36.9406 29.5907 37.1836 28.1435 37.4211 26.6963C37.6648 25.1942 37.9151 23.6982 38.1653 22.2022C38.4154 20.7062 38.6656 19.2102 38.9094 17.7081C38.9196 17.649 38.9309 17.5899 38.9422 17.5307C38.9874 17.2945 39.0326 17.058 39.0121 16.8216C38.8324 16.797 38.7041 16.797 38.5502 16.797H18.8947H18.6637C18.5098 16.7724 18.4071 16.8216 18.4071 16.9941L18.2532 18.6193L17.8683 22.9779L17.8643 23.0439C17.8399 23.4429 17.8142 23.8618 17.7656 24.2584C17.74 24.4308 17.8169 24.48 17.9966 24.48H18.2788H24.6939C24.7331 24.48 24.7708 24.4785 24.8077 24.4769C24.915 24.4723 25.0154 24.468 25.1301 24.5047C25.1301 24.6601 25.0821 24.7849 25.0368 24.9031C25.0246 24.9347 25.0125 24.9659 25.0018 24.9971C24.3603 26.7702 23.3082 28.2723 21.8969 29.5282C20.2803 30.9565 18.4585 31.966 16.2773 32.3108C16.0207 32.3602 16.0207 32.4833 16.0207 32.6556V39.3783C16.0207 39.6985 16.0464 39.6985 16.3543 39.6985C17.1512 39.6985 17.924 39.6288 18.7195 39.5572L18.792 39.5506C21.5377 39.3045 23.9241 38.2702 25.9769 36.4725Z" fill="#170203"/>
<path d="M27.7728 34.7483C27.1826 35.3638 26.5924 35.9303 25.9766 36.472C23.9238 38.2696 21.5374 39.3039 18.7917 39.5501L18.7192 39.5567L18.7135 39.5572C17.92 39.6286 17.149 39.6979 16.354 39.6979C16.0461 39.6979 16.0204 39.6979 16.0204 39.3778V32.6551C16.0204 32.4827 16.0204 32.3597 16.277 32.3103C18.4582 31.9655 20.28 30.956 21.8966 29.5277C23.3079 28.2718 24.36 26.7697 25.0015 24.9966C25.0121 24.9659 25.0239 24.9352 25.0359 24.9041L25.0365 24.9026L25.0369 24.9014C25.0821 24.7835 25.1298 24.6591 25.1298 24.5041C25.0151 24.4675 24.9148 24.4718 24.8075 24.4764L24.8074 24.4764C24.7705 24.478 24.7328 24.4795 24.6936 24.4795H18.2785H17.9963C17.8167 24.4795 17.7397 24.4303 17.7653 24.2578C17.8139 23.8613 17.8396 23.4424 17.864 23.0434L17.868 22.9774L18.2529 18.6188L18.4068 16.9935C18.4068 16.8211 18.5095 16.7719 18.6634 16.7965H18.8944H38.5499C38.7038 16.7965 38.8321 16.7965 39.0118 16.8211C39.0323 17.0575 38.9871 17.2939 38.9419 17.5302L38.9419 17.5306C38.9306 17.5896 38.9193 17.6486 38.9091 17.7075C38.6653 19.2097 38.4151 20.7057 38.165 22.2017L38.1511 22.2844C37.9056 23.7528 37.66 25.2214 37.4208 26.6958C37.1883 28.1124 36.9506 29.529 36.7125 30.9478L36.6971 31.0398C36.4144 32.7229 36.1312 34.4092 35.8556 36.1026L35.8098 36.3841L35.8084 36.3928C35.6955 37.089 35.5802 37.7997 35.445 38.4912L35.4427 38.5032C35.3937 38.7628 35.3891 38.7867 35.0858 38.7867H28.1575H28.1575C28.0146 38.7867 27.9441 38.7867 27.9092 38.7515C27.8753 38.7172 27.8753 38.6495 27.8753 38.5158V38.5158V35.2161C27.8753 35.1894 27.8762 35.1634 27.8771 35.1377L27.8774 35.1291C27.8816 35.0158 27.8855 34.9056 27.8241 34.7483H27.7728Z" fill="#EB2128"/>
</svg>
