<svg width="116" height="48" viewBox="0 0 116 48" fill="none" xmlns="http://www.w3.org/2000/svg">
<path fill-rule="evenodd" clip-rule="evenodd" d="M28.9222 9.99449C28.7872 10.0314 28.6907 10.0314 28.5943 10.0314H22.1709H22.1131C21.8623 10.0314 21.8623 10.0314 21.843 9.7913C21.6887 8.55392 20.9943 7.64896 19.9527 6.96554C19.1233 6.43003 18.1974 6.11597 17.2137 5.98673C15.6513 5.76508 14.1274 5.93135 12.7 6.59619C11.4655 7.16873 10.4238 7.99984 9.53653 9.01568C8.20557 10.5486 7.31826 12.3031 6.81674 14.2424C6.48893 15.4613 6.33462 16.6987 6.41177 17.9545C6.50822 19.4506 6.87461 20.8542 7.74263 22.1101C8.35989 22.9966 9.15075 23.6799 10.1924 24.0678C10.3274 24.1232 10.366 24.1786 10.3467 24.3264C10.2309 25.102 10.1345 25.8777 10.0381 26.6719C9.9706 27.1428 9.90788 27.6138 9.84516 28.0847C9.78255 28.5557 9.71984 29.0267 9.65227 29.4976C9.61369 29.7377 9.61369 29.7377 9.36293 29.7192C7.10608 29.4606 5.11939 28.685 3.47979 27.152C2.30315 26.0439 1.49299 24.7142 0.952893 23.2552C0.509239 22.0547 0.239189 20.8172 0.104163 19.5429C-0.0115726 18.3609 -0.0308634 17.1974 0.0462938 16.0154C0.297055 12.2293 1.51228 8.79403 3.98132 5.802C6.16101 3.16097 8.91928 1.36951 12.3142 0.501475C14.1274 0.0397104 15.9599 -0.0710612 17.8309 0.0397108C19.1426 0.132128 20.4156 0.335209 21.6694 0.741588C23.7912 1.4249 25.5466 2.56997 26.839 4.34297C27.7456 5.562 28.3049 6.91016 28.6521 8.36919C28.7872 8.9048 28.8836 9.45888 28.9415 10.0314L28.9222 9.99449ZM37.6408 29.0859C37.7179 28.5504 37.7951 28.0333 37.8722 27.5162C38.0651 26.2788 38.258 25.0412 38.4316 23.8039C38.5275 23.1795 38.6234 22.5597 38.7193 21.9399L38.721 21.9293C38.8174 21.306 38.9139 20.6826 39.0103 20.0547C39.0489 19.7592 39.0875 19.4637 39.0103 19.1866C38.8367 18.4848 38.2001 17.9676 37.4479 17.9122C36.1942 17.8199 35.0561 18.7064 34.8825 19.8884C34.7378 20.8395 34.5979 21.7861 34.4581 22.7326C34.3184 23.679 34.1784 24.6257 34.0338 25.5769C33.9566 26.1125 33.8746 26.6481 33.7926 27.1837C33.7107 27.7191 33.6286 28.255 33.5515 28.7904C33.5515 28.8181 33.5418 28.8458 33.5322 28.8735C33.5225 28.9012 33.5129 28.9289 33.5129 28.9566C33.5129 29.0675 33.4358 29.1044 33.3393 29.0859H33.1657H28.3241H28.2084C28.0914 29.0859 28.0335 29.0859 28.0074 29.0573C27.9819 29.0293 27.9867 28.9739 27.9962 28.8643C28.3048 26.7773 28.6135 24.6904 28.9414 22.6218C29.0668 21.8 29.1921 20.9736 29.3175 20.1471L29.3187 20.1399C29.4437 19.3158 29.5687 18.4916 29.6937 17.6721C29.8094 16.9244 29.9203 16.1721 30.0311 15.4197C30.142 14.6671 30.2531 13.9137 30.3688 13.1658C30.3881 13.018 30.4267 12.9441 30.6003 12.9441H35.8277C35.8277 12.9441 35.8662 12.9441 35.9241 12.9626C35.8796 13.2865 35.8309 13.6143 35.782 13.9443C35.725 14.3291 35.6673 14.7173 35.6155 15.1049C35.7066 15.1049 35.738 15.0476 35.766 14.9962C35.7736 14.9823 35.7809 14.9689 35.7891 14.9572C36.9464 13.6644 38.4316 12.9441 40.1869 12.704C41.1514 12.5748 42.0966 12.6486 43.0225 12.9626C44.0448 13.3135 44.8743 13.9045 45.4144 14.8279L45.4529 14.8649C45.5192 14.8649 45.5491 14.8212 45.58 14.7759C45.5941 14.7554 45.6084 14.7345 45.6265 14.7171C46.7839 13.572 48.192 12.9072 49.8509 12.6855C50.931 12.5563 51.9919 12.6671 52.9949 13.0734C53.863 13.4428 54.5574 13.9784 55.0396 14.791C55.0396 14.7987 55.0463 14.8063 55.0541 14.8152C55.0649 14.8279 55.0782 14.8432 55.0782 14.8649C55.1495 14.8649 55.1786 14.8245 55.2046 14.7885C55.2138 14.7758 55.2225 14.7637 55.2325 14.754C56.3899 13.572 57.8173 12.9072 59.4955 12.704C60.2863 12.6117 61.0772 12.6486 61.8487 12.8518C63.0639 13.1658 64.0669 13.7937 64.7035 14.8834C64.7874 14.8834 64.8307 14.8251 64.8703 14.772C64.8854 14.7518 64.8998 14.7324 64.9156 14.7171C66.073 13.572 67.4811 12.9257 69.1207 12.704C70.3359 12.5563 71.4933 12.704 72.5928 13.2396C73.538 13.7014 74.2517 14.4032 74.5989 15.4004C74.7725 15.8807 74.8111 16.3793 74.7339 16.8965C74.5964 17.7188 74.4743 18.5558 74.3538 19.3813L74.3096 19.6852C74.3038 19.7229 74.3064 19.7622 74.3091 19.8025C74.3095 19.8098 74.3101 19.8171 74.3105 19.8244C74.3108 19.83 74.3112 19.8357 74.3114 19.8413C74.3655 19.6906 74.4147 19.5494 74.4639 19.4082C75.2547 17.1551 76.6049 15.3081 78.6688 13.9784C80.0769 13.0549 81.6394 12.5193 83.3371 12.3716C84.919 12.2423 86.4621 12.3716 87.9665 12.8887C89.0657 13.2765 89.9913 13.886 90.667 14.8094C91.1681 15.4928 91.458 16.2685 91.5927 17.0996C91.6886 17.6536 91.7274 18.2077 91.708 18.8172C91.8006 18.7434 91.8319 18.6579 91.8599 18.5793C91.8632 18.5695 91.8675 18.5597 91.8707 18.55C91.8739 18.5404 91.8782 18.531 91.8815 18.5217C92.6347 16.7671 93.7727 15.3081 95.3924 14.2C96.762 13.2396 98.3051 12.6671 99.983 12.4454C101.257 12.2793 102.51 12.2793 103.764 12.5748C106.522 13.2027 108.201 14.8465 108.799 17.4875C109.127 18.9465 109.03 20.3871 108.683 21.8277C108.258 23.5637 107.506 25.152 106.291 26.5187C104.671 28.3471 102.607 29.4553 100.138 29.8432C98.6133 30.0832 97.0896 30.0463 95.6046 29.6215C93.1164 28.9012 91.6315 27.2945 91.1293 24.8565L91.1164 24.7862C91.0636 24.4982 91.0129 24.2234 90.9946 23.9331C90.9946 23.8408 90.9946 23.7484 90.9364 23.6376C90.8405 23.8776 90.7435 24.1179 90.6282 24.3578C89.2586 27.3314 86.905 29.1967 83.5493 29.8062C81.6973 30.1386 79.8262 30.0647 78.0516 29.4183C75.7948 28.6242 74.4639 27.0728 74.0009 24.8196C73.9238 24.3949 73.8852 23.97 73.8466 23.5453C73.8466 23.4529 73.8466 23.3606 73.7887 23.2682C73.7695 23.4067 73.7453 23.5453 73.7212 23.6838C73.697 23.8223 73.673 23.9608 73.6537 24.0994C73.5283 24.9027 73.4077 25.7061 73.2872 26.5095C73.1666 27.3129 73.046 28.1163 72.9207 28.9197C72.9014 29.1044 72.8821 29.1044 72.6507 29.1044H69.0436H67.4618C67.2497 29.1044 67.2497 29.1044 67.2689 28.9012C67.3409 28.4535 67.4086 28.0058 67.4762 27.5599C67.5533 27.0496 67.6303 26.5411 67.7126 26.0385C67.9055 24.8011 68.0984 23.5637 68.272 22.3263L68.306 22.0925C68.4106 21.3733 68.5167 20.6435 68.6385 19.9438C68.8314 18.8541 67.9634 17.709 66.4395 17.9861C65.3786 18.1708 64.607 18.9834 64.4527 19.9992C64.3178 20.9127 64.1829 21.8217 64.0479 22.7306C63.9128 23.6405 63.7777 24.5516 63.6425 25.466C63.5558 26.0293 63.4738 26.5926 63.3918 27.1559C63.3099 27.7192 63.2279 28.2825 63.1411 28.8458C63.1411 28.9012 63.1217 28.9566 63.1024 29.0121C63.1024 29.1044 63.0447 29.1413 62.9482 29.1413H62.8325H57.5665H57.3351L57.5087 27.9224C57.7401 26.4264 57.9716 24.9304 58.2031 23.4529C58.3767 22.3448 58.5503 21.2366 58.7046 20.1285C58.7432 19.833 58.7817 19.5191 58.7046 19.2236C58.531 18.5217 57.8944 18.0231 57.1229 17.9676C55.8691 17.8938 54.7503 18.7803 54.5574 19.9623L53.7472 25.2814C53.5543 26.5003 53.3807 27.7007 53.2071 28.9197C53.1686 29.1598 53.1686 29.1598 52.9178 29.1598H47.7677C47.5362 29.1598 47.5169 29.1598 47.5555 28.9197C47.864 26.9252 48.1727 24.9301 48.4814 22.9174C48.5585 22.4185 48.6357 21.915 48.7128 21.4116C48.79 20.9088 48.8671 20.4051 48.9443 19.9069C49.0986 18.8541 48.327 17.9861 47.2083 17.9676C45.9737 17.9491 44.9321 18.8172 44.7585 20.0176C44.6235 20.9319 44.4836 21.8461 44.3437 22.7603C44.204 23.6745 44.0641 24.5887 43.9291 25.5029C43.8422 26.0662 43.7603 26.6295 43.6783 27.1928C43.5963 27.7561 43.5143 28.3194 43.4276 28.8827C43.389 29.1413 43.389 29.1413 43.1575 29.1413H37.8144H37.66L37.6408 29.0859ZM91.5345 19.1682H91.2263H86.5968H86.3846C86.2876 19.1682 86.2693 19.1311 86.2693 19.0388V18.5032C86.1917 17.5429 85.6712 16.841 84.7638 16.5825C83.53 16.2315 82.4114 16.4532 81.4658 17.3028C81.08 17.6536 80.7907 18.06 80.5399 18.5217C79.7683 19.9992 79.4597 21.5691 79.4404 23.1943C79.4404 23.6191 79.4983 24.0254 79.6526 24.4133C79.9033 25.0782 80.3856 25.5029 81.08 25.7061C81.3886 25.7984 81.7165 25.8354 82.045 25.8354C83.1636 25.8724 84.0698 25.466 84.7638 24.6164C85.0925 24.2286 85.3048 23.7854 85.4977 23.3236C85.5742 23.1143 85.7348 23.0097 85.9794 23.0097H90.6476C90.8028 23.0097 90.8707 23.0097 90.8987 22.9765C90.9202 22.9512 90.9202 22.9066 90.9181 22.8281C90.9181 22.8053 90.917 22.7799 90.917 22.7511C90.9752 21.6245 91.1487 20.5348 91.4957 19.4452C91.5021 19.4158 91.5119 19.3883 91.5226 19.3604C91.5442 19.3003 91.5668 19.2378 91.5539 19.1496L91.5345 19.1682ZM96.4732 22.3077C96.4732 23.2585 96.5325 23.9371 96.8396 24.561C97.1672 25.2444 97.7071 25.6876 98.498 25.817C99.289 25.9462 100.041 25.8354 100.735 25.466C101.411 25.1151 101.893 24.5795 102.26 23.9331C103.127 22.3633 103.513 20.6826 103.32 18.9096C103.262 18.4109 103.127 17.9307 102.839 17.4875C102.529 16.9888 102.067 16.6379 101.469 16.5086C100.62 16.324 99.8095 16.4347 99.0573 16.8596C98.4204 17.2105 97.9582 17.7276 97.6112 18.3371C96.8202 19.6483 96.5303 21.0888 96.4732 22.3077ZM19.5274 27.3544C19.9904 26.9481 20.434 26.5232 20.8777 26.0616H20.9163C20.9624 26.1796 20.9595 26.2622 20.9564 26.3472C20.9556 26.3686 20.9547 26.3901 20.9547 26.4125V28.8872C20.9547 28.9875 20.9547 29.0383 20.9803 29.064C21.0065 29.0904 21.0595 29.0904 21.1669 29.0904H26.375C26.6031 29.0904 26.6065 29.0725 26.6434 28.8778L26.6451 28.8688C26.7471 28.348 26.8341 27.8127 26.9193 27.2885C26.9309 27.2178 26.9423 27.1474 26.9537 27.0773C27.1609 25.8073 27.3738 24.5426 27.5863 23.2803C27.7692 22.1931 27.9518 21.1077 28.1304 20.0223C28.3136 18.8956 28.5017 17.7737 28.6898 16.6517C28.8778 15.5297 29.0658 14.4077 29.2491 13.2811C29.2568 13.2367 29.2653 13.1924 29.2738 13.1481C29.3078 12.9708 29.3417 12.7935 29.3263 12.6162C29.1913 12.5977 29.0948 12.5977 28.9791 12.5977H14.2036H14.03C13.9142 12.5793 13.8371 12.6162 13.8371 12.7455L13.7213 13.9645L13.432 17.2334L13.429 17.2829C13.4107 17.5822 13.3914 17.8963 13.3548 18.1938C13.3356 18.3231 13.3934 18.36 13.5285 18.36H13.7406H18.563C18.5925 18.36 18.6208 18.3589 18.6485 18.3577C18.7292 18.3542 18.8047 18.351 18.8909 18.3785C18.8909 18.4951 18.8548 18.5887 18.8207 18.6773C18.8116 18.701 18.8025 18.7244 18.7944 18.7478C18.3122 20.0776 17.5213 21.2043 16.4604 22.1461C15.2452 23.2174 13.8757 23.9745 12.2361 24.2331C12.0432 24.2701 12.0432 24.3624 12.0432 24.4917V29.5337C12.0432 29.7739 12.0625 29.7738 12.2939 29.7738C12.893 29.7738 13.4739 29.7216 14.0719 29.6679L14.1264 29.663C16.1904 29.4784 17.9843 28.7026 19.5274 27.3544Z" fill="white"/>
<path d="M20.8775 26.0613C20.4338 26.523 19.9902 26.9478 19.5272 27.3541C17.9841 28.7024 16.1902 29.4781 14.1262 29.6627L14.0717 29.6676L14.0674 29.668C13.4709 29.7216 12.8913 29.7736 12.2937 29.7736C12.0623 29.7736 12.043 29.7736 12.043 29.5335V24.4914C12.043 24.3622 12.043 24.2699 12.2359 24.2328C13.8755 23.9743 15.245 23.2171 16.4602 22.1459C17.5211 21.204 18.312 20.0774 18.7942 18.7476C18.8022 18.7246 18.8111 18.7016 18.8201 18.6783L18.8205 18.6771L18.8209 18.6762C18.8548 18.5878 18.8907 18.4944 18.8907 18.3782C18.8045 18.3508 18.7291 18.354 18.6484 18.3574L18.6483 18.3574C18.6206 18.3586 18.5923 18.3598 18.5628 18.3598H13.7404H13.5283C13.3932 18.3598 13.3354 18.3228 13.3546 18.1935C13.3912 17.8961 13.4105 17.5819 13.4288 17.2826L13.4318 17.2332L13.7211 13.9642L13.8369 12.7453C13.8369 12.6159 13.914 12.579 14.0298 12.5975H14.2034H28.9789C29.0946 12.5975 29.1911 12.5975 29.3261 12.6159C29.3415 12.7933 29.3076 12.9706 29.2736 13.1478C29.2651 13.1921 29.2566 13.2365 29.2489 13.2808C29.0656 14.4074 28.8776 15.5293 28.6896 16.6513L28.6895 16.6514L28.6791 16.714C28.4945 17.8151 28.3099 18.9163 28.1302 20.022C27.9554 21.0845 27.7766 22.1471 27.5976 23.2113L27.5861 23.28C27.3736 24.5423 27.1607 25.807 26.9535 27.0771L26.9191 27.2882L26.9181 27.2948C26.8332 27.8169 26.7465 28.3499 26.6449 28.8685L26.6432 28.8775C26.6063 29.0722 26.6029 29.0902 26.3748 29.0902H21.1667H21.1667C21.0593 29.0902 21.0063 29.0902 20.9801 29.0638C20.9545 29.038 20.9545 28.9872 20.9545 28.887V28.887V26.4122C20.9545 26.3921 20.9552 26.3727 20.9559 26.3534L20.9561 26.3469C20.9593 26.2619 20.9622 26.1793 20.9161 26.0613H20.8775Z" fill="#EB2128"/>
<path d="M7.54197 39.3171H6.21028C6.15906 39.0214 6.06374 38.7613 5.92431 38.5366C5.78488 38.3119 5.61415 38.1212 5.41212 37.9645C5.21009 37.8078 4.98388 37.6896 4.73347 37.6098C4.48591 37.5299 4.22271 37.49 3.94385 37.49C3.4402 37.49 2.98919 37.6216 2.59082 37.8847C2.1953 38.1478 1.88229 38.5336 1.65181 39.0421C1.42417 39.5506 1.31035 40.1715 1.31035 40.9047C1.31035 41.6438 1.42417 42.2676 1.65181 42.7761C1.88229 43.2846 2.19672 43.6689 2.59509 43.929C2.99346 44.1892 3.44162 44.3193 3.93958 44.3193C4.21559 44.3193 4.47738 44.2809 4.72494 44.204C4.97534 44.1242 5.20156 44.0074 5.40359 43.8537C5.60562 43.6999 5.77634 43.5122 5.91577 43.2905C6.05805 43.0658 6.15622 42.8086 6.21028 42.5188L7.54197 42.5233C7.47083 42.9697 7.33283 43.3806 7.12795 43.7561C6.92592 44.1286 6.66556 44.4508 6.34687 44.7228C6.03102 44.9919 5.66964 45.2003 5.26273 45.3481C4.85583 45.4959 4.41193 45.5698 3.93104 45.5698C3.17414 45.5698 2.49976 45.3836 1.9079 45.0111C1.31604 44.6356 0.849379 44.099 0.50792 43.4013C0.169307 42.7036 0 41.8714 0 40.9047C0 39.935 0.170729 39.1027 0.512188 38.408C0.853647 37.7103 1.32031 37.1752 1.91217 36.8027C2.50403 36.4272 3.17699 36.2395 3.93104 36.2395C4.39486 36.2395 4.82737 36.3089 5.22859 36.4479C5.63265 36.5839 5.99545 36.7849 6.31699 37.051C6.63853 37.3141 6.90458 37.6364 7.11515 38.0177C7.32571 38.3962 7.46799 38.8293 7.54197 39.3171Z" fill="#EB2128"/>
<path d="M9.12015 45.4457V36.3636H10.439V40.7007H10.5457L14.2122 36.3636H15.8725L12.3469 40.4523L15.8853 45.4457H14.2975L11.4719 41.388L10.439 42.6208V45.4457H9.12015Z" fill="#EB2128"/>
<path d="M17.8402 45.4457H16.4402L19.5859 36.3636H21.1096L24.2553 45.4457H22.8553L20.384 38.0133H20.3157L17.8402 45.4457ZM18.0749 41.8891H22.6163V43.0421H18.0749V41.8891Z" fill="#EB2128"/>
<path d="M28.6985 45.4457V36.3636H31.8997C32.52 36.3636 33.0336 36.4701 33.4406 36.6829C33.8475 36.8928 34.1519 37.1781 34.354 37.5388C34.556 37.8965 34.657 38.3001 34.657 38.7494C34.657 39.1279 34.5901 39.4472 34.4564 39.7073C34.3227 39.9645 34.1434 40.1715 33.9186 40.3282C33.6966 40.4819 33.4519 40.5942 33.1845 40.6652V40.7539C33.4747 40.7687 33.7578 40.8662 34.0338 41.0466C34.3127 41.2239 34.5432 41.4767 34.7253 41.8049C34.9074 42.133 34.9985 42.5322 34.9985 43.0022C34.9985 43.4664 34.8932 43.8832 34.6826 44.2528C34.4749 44.6194 34.1533 44.9106 33.718 45.1264C33.2826 45.3392 32.7263 45.4457 32.0491 45.4457H28.6985ZM30.0174 44.2705H31.9211C32.5528 44.2705 33.0052 44.1434 33.2784 43.8891C33.5515 43.6349 33.6881 43.3171 33.6881 42.9357C33.6881 42.6489 33.6184 42.3858 33.479 42.1463C33.3395 41.9069 33.1404 41.7162 32.8814 41.5743C32.6253 41.4324 32.3209 41.3614 31.968 41.3614H30.0174V44.2705ZM30.0174 40.2927H31.7845C32.0804 40.2927 32.3465 40.2336 32.5826 40.1153C32.8217 39.997 33.0109 39.8315 33.1503 39.6186C33.2926 39.4028 33.3637 39.1486 33.3637 38.8559C33.3637 38.4804 33.2371 38.1656 32.9838 37.9113C32.7306 37.6571 32.3422 37.5299 31.8186 37.5299H30.0174V40.2927Z" fill="white"/>
<path d="M36.4603 45.4457V38.6341H37.7365V45.4457H36.4603ZM37.1048 37.5831C36.8829 37.5831 36.6922 37.5063 36.5329 37.3525C36.3764 37.1959 36.2981 37.0096 36.2981 36.7938C36.2981 36.575 36.3764 36.3888 36.5329 36.235C36.6922 36.0783 36.8829 36 37.1048 36C37.3268 36 37.516 36.0783 37.6725 36.235C37.8319 36.3888 37.9115 36.575 37.9115 36.7938C37.9115 37.0096 37.8319 37.1959 37.6725 37.3525C37.516 37.5063 37.3268 37.5831 37.1048 37.5831Z" fill="white"/>
<path d="M39.4534 45.4457V38.6341H40.6869V39.7162H40.7552C40.8748 39.3496 41.0853 39.0613 41.3869 38.8514C41.6914 38.6386 42.0357 38.5322 42.4198 38.5322C42.4995 38.5322 42.5934 38.5351 42.7016 38.541C42.8125 38.5469 42.8993 38.5543 42.9619 38.5632V39.8315C42.9107 39.8167 42.8196 39.8004 42.6888 39.7827C42.5579 39.762 42.427 39.7517 42.2961 39.7517C41.9944 39.7517 41.7256 39.8182 41.4894 39.9512C41.256 40.0813 41.0711 40.2631 40.9345 40.4967C40.7979 40.7273 40.7296 40.9904 40.7296 41.286V45.4457H39.4534Z" fill="white"/>
<path d="M45.3425 36.3636V45.4457H44.0663V36.3636H45.3425Z" fill="white"/>
<path d="M48.9673 45.5965C48.5519 45.5965 48.1763 45.5166 47.8405 45.357C47.5047 45.1944 47.2387 44.9593 47.0423 44.6519C46.8489 44.3444 46.7521 43.9675 46.7521 43.5211C46.7521 43.1367 46.8232 42.8204 46.9655 42.5721C47.1078 42.3237 47.2999 42.1271 47.5417 41.9823C47.7836 41.8374 48.0539 41.728 48.3527 41.6541C48.6515 41.5802 48.9559 41.524 49.2661 41.4856C49.6588 41.4383 49.9775 41.3999 50.2222 41.3703C50.4669 41.3378 50.6447 41.286 50.7557 41.2151C50.8667 41.1441 50.9222 41.0288 50.9222 40.8692V40.8381C50.9222 40.4508 50.8169 40.1508 50.6063 39.9379C50.3986 39.7251 50.0884 39.6186 49.6759 39.6186C49.2462 39.6186 48.9076 39.7177 48.66 39.9157C48.4153 40.1109 48.246 40.3282 48.1521 40.5676L46.9527 40.2838C47.095 39.8699 47.3027 39.5358 47.5759 39.2816C47.8519 39.0244 48.1692 38.8381 48.5277 38.7228C48.8862 38.6046 49.2633 38.5455 49.6588 38.5455C49.9206 38.5455 50.198 38.578 50.4911 38.643C50.787 38.7051 51.063 38.8204 51.3191 38.9889C51.5781 39.1574 51.79 39.3984 51.9551 39.7118C52.1201 40.0222 52.2026 40.4257 52.2026 40.9224V45.4457H50.9563V44.5144H50.9051C50.8226 44.6859 50.6988 44.8544 50.5338 45.02C50.3687 45.1855 50.1567 45.323 49.8978 45.4324C49.6389 45.5418 49.3287 45.5965 48.9673 45.5965ZM49.2448 44.5322C49.5976 44.5322 49.8992 44.4597 50.1496 44.3149C50.4029 44.17 50.5949 43.9808 50.7258 43.7472C50.8596 43.5107 50.9264 43.2579 50.9264 42.9889V42.1109C50.8809 42.1582 50.7927 42.2025 50.6618 42.2439C50.5338 42.2823 50.3872 42.3163 50.2222 42.3459C50.0571 42.3725 49.8964 42.3976 49.7399 42.4213C49.5834 42.442 49.4525 42.4597 49.3472 42.4745C49.0996 42.507 48.8734 42.5617 48.6685 42.6386C48.4665 42.7154 48.3043 42.8263 48.182 42.9712C48.0625 43.1131 48.0027 43.3023 48.0027 43.5388C48.0027 43.867 48.1194 44.1153 48.3527 44.2838C48.586 44.4494 48.8834 44.5322 49.2448 44.5322Z" fill="white"/>
<path d="M63.634 39.2018C63.5544 38.9002 63.4377 38.6179 63.284 38.3548C63.1304 38.0887 62.9397 37.8566 62.7121 37.6585C62.4873 37.4575 62.2269 37.3008 61.931 37.1885C61.6379 37.0761 61.3107 37.02 60.9493 37.02C60.3802 37.02 59.8709 37.1737 59.4213 37.4812C58.9717 37.7886 58.616 38.2321 58.3542 38.8115C58.0953 39.391 57.9658 40.0887 57.9658 40.9047C57.9658 41.7177 58.0967 42.4139 58.3585 42.9933C58.6203 43.5728 58.9788 44.0177 59.4341 44.3282C59.8922 44.6356 60.4158 44.7894 61.0048 44.7894C61.5426 44.7894 62.0178 44.6652 62.4304 44.4169C62.843 44.1685 63.1645 43.8137 63.395 43.3525C63.6284 42.8914 63.7422 42.3429 63.7365 41.7073L63.9926 41.7916H61.1926V41.0466H64.5133V41.7916C64.5133 42.5661 64.3625 43.2358 64.0609 43.8004C63.7592 44.3651 63.3452 44.8012 62.8188 45.1086C62.2924 45.4161 61.6877 45.5698 61.0048 45.5698C60.2422 45.5698 59.575 45.3792 59.003 44.9978C58.4311 44.6135 57.9857 44.0724 57.6671 43.3747C57.3512 42.6741 57.1933 41.8507 57.1933 40.9047C57.1933 40.1922 57.2843 39.5491 57.4664 38.9756C57.6486 38.4021 57.9061 37.9113 58.239 37.5033C58.5748 37.0953 58.9717 36.7834 59.4298 36.5676C59.888 36.3489 60.3945 36.2395 60.9493 36.2395C61.4274 36.2395 61.8642 36.3178 62.2597 36.4745C62.658 36.6312 63.008 36.847 63.3097 37.122C63.6141 37.3939 63.8631 37.7088 64.0566 38.0665C64.2529 38.4213 64.3853 38.7997 64.4535 39.2018H63.634Z" fill="white"/>
<path d="M66.3369 45.4457V38.6341H67.0753V39.6807H67.1308C67.2617 39.3378 67.4893 39.0613 67.8137 38.8514C68.1409 38.6386 68.5109 38.5322 68.9235 38.5322C68.9861 38.5322 69.0558 38.5336 69.1326 38.5366C69.2094 38.5395 69.2735 38.5425 69.3247 38.5455V39.3481C69.2905 39.3422 69.2308 39.3333 69.1454 39.3215C69.06 39.3097 68.9676 39.3038 68.868 39.3038C68.5265 39.3038 68.222 39.3792 67.9546 39.5299C67.6899 39.6778 67.4808 39.8832 67.3271 40.1463C67.1735 40.4095 67.0967 40.7095 67.0967 41.0466V45.4457H66.3369Z" fill="white"/>
<path d="M72.9697 45.5876C72.4035 45.5876 71.9027 45.4383 71.4673 45.1397C71.0348 44.8411 70.6962 44.4287 70.4515 43.9024C70.2068 43.3732 70.0844 42.7627 70.0844 42.071C70.0844 41.3732 70.2068 40.7598 70.4515 40.2306C70.6962 39.6984 71.0348 39.2846 71.4673 38.9889C71.9027 38.6903 72.4035 38.541 72.9697 38.541C73.536 38.541 74.0354 38.6903 74.4679 38.9889C74.9004 39.2875 75.239 39.7014 75.4837 40.2306C75.7313 40.7598 75.8551 41.3732 75.8551 42.071C75.8551 42.7627 75.7327 43.3732 75.488 43.9024C75.2433 44.4287 74.9033 44.8411 74.4679 45.1397C74.0354 45.4383 73.536 45.5876 72.9697 45.5876ZM72.9697 44.8647C73.425 44.8647 73.8106 44.7376 74.1264 44.4834C74.4423 44.2291 74.6813 43.8906 74.8435 43.4678C75.0085 43.0451 75.091 42.5795 75.091 42.071C75.091 41.5625 75.0085 41.0953 74.8435 40.6696C74.6813 40.2439 74.4423 39.9024 74.1264 39.6452C73.8106 39.388 73.425 39.2594 72.9697 39.2594C72.5173 39.2594 72.1317 39.388 71.813 39.6452C71.4972 39.9024 71.2568 40.2439 71.0917 40.6696C70.9295 41.0953 70.8484 41.5625 70.8484 42.071C70.8484 42.5795 70.9295 43.0451 71.0917 43.4678C71.2568 43.8906 71.4972 44.2291 71.813 44.4834C72.1289 44.7376 72.5145 44.8647 72.9697 44.8647Z" fill="white"/>
<path d="M81.6887 42.8426V38.6341H82.4484V45.4457H81.6887V44.3149H81.6289C81.4753 44.6637 81.232 44.9549 80.8991 45.1885C80.5661 45.4191 80.1592 45.5344 79.6783 45.5344C79.2601 45.5344 78.8887 45.4398 78.5643 45.2506C78.2399 45.0584 77.9853 44.7775 77.8003 44.408C77.6154 44.0384 77.5229 43.5846 77.5229 43.0466V38.6341H78.2826V42.9978C78.2826 43.5299 78.4334 43.9586 78.7351 44.2838C79.0367 44.6061 79.4237 44.7672 79.896 44.7672C80.1919 44.7672 80.4765 44.6933 80.7497 44.5455C81.0228 44.3976 81.2476 44.1818 81.424 43.898C81.6005 43.6112 81.6887 43.2594 81.6887 42.8426Z" fill="white"/>
<path d="M84.4598 48V38.6341H85.1982V39.9335H85.2879C85.3789 39.7295 85.5041 39.5211 85.6635 39.3082C85.8228 39.0924 86.0334 38.9106 86.2952 38.7627C86.5598 38.6149 86.8927 38.541 87.2939 38.541C87.8346 38.541 88.3069 38.6888 88.711 38.9845C89.1179 39.2772 89.4337 39.6881 89.6585 40.2173C89.8862 40.7435 90 41.357 90 42.0576C90 42.7613 89.8862 43.3777 89.6585 43.9069C89.4337 44.4361 89.1179 44.8485 88.711 45.1441C88.3069 45.4398 87.8374 45.5876 87.3025 45.5876C86.907 45.5876 86.5755 45.5137 86.308 45.3659C86.0433 45.218 85.8285 45.0362 85.6635 44.8204C85.5013 44.6016 85.3761 44.3888 85.2879 44.1818H85.2196V48H84.4598ZM85.211 42.0443C85.211 42.5942 85.2893 43.082 85.4458 43.5078C85.6051 43.9305 85.8328 44.2631 86.1287 44.5055C86.4275 44.745 86.7889 44.8647 87.2128 44.8647C87.6482 44.8647 88.0153 44.7406 88.314 44.4922C88.6157 44.2409 88.8447 43.9024 89.0012 43.4767C89.1606 43.051 89.2402 42.5735 89.2402 42.0443C89.2402 41.5211 89.162 41.0495 89.0055 40.6297C88.8518 40.2099 88.6242 39.8773 88.3226 39.6319C88.021 39.3836 87.651 39.2594 87.2128 39.2594C86.786 39.2594 86.4232 39.3792 86.1244 39.6186C85.8257 39.8551 85.598 40.1833 85.4415 40.6031C85.2879 41.02 85.211 41.5004 85.211 42.0443Z" fill="white"/>
</svg>
